<svg id="レイヤー_1" data-name="レイヤー 1" xmlns="http://www.w3.org/2000/svg" width="273" height="23" viewBox="0 0 663.91 55.61">
  <defs>
    <style>
      .cls-1 {
        fill: #231815;
      }

      .cls-2 {
        fill: #fccf00;
      }
    </style>
  </defs>
  <title>logo_yhc</title>
  <g>
    <g>
      <path class="cls-1" d="M662.47,39.29l-6.84-3.65-.41-.25c-.57-.49-.16-1.27,0-1.47,4.32-5,7.25-10.64,7.25-14.48h0V15.09a1.65,1.65,0,0,0-1.64-1.64H626.61A1.64,1.64,0,0,0,625,15.09v4.39a1.64,1.64,0,0,0,1.63,1.64h24.53c.78.1,1.73.53,1.2,1.8s-2.15,4.88-8.1,9.56c-7.19,5.64-17,7.45-17.37,7.52l-.59.16c-1.14.17-1.64.79-1.64,1.71v5.61a1.6,1.6,0,0,0,1.72,1.72h0c1.08-.23,11.5-2.54,19.79-7.54a1.83,1.83,0,0,1,1.88-.29l14.44,7.75a.9.9,0,0,0,1.44-.87V41.7A3,3,0,0,0,662.47,39.29Z"/>
      <rect class="cls-1" x="277.31" y="27.6" width="24.6" height="7.52" rx="1.64"/>
      <path class="cls-1" d="M135.46,17.44c-.32-.55-1.36-.92-3.15-.92s-18,0-18.85,0c-1.46,0-1.87-.84-2.14-2.15s-.64-3.58-1-5a1.43,1.43,0,0,0-1.59-1.26h-5.33a1.37,1.37,0,0,0-1.5,1.53c.2,1.2.4,3.3.68,4.72.36,1.86.19,2.22-1.26,2.22H96.91c-1.7,0-2.32.15-2.32,2.22s0,1.87,0,3c0,1.47.22,2.35,2.56,2.34,0,0,4.49,0,5.46,0,2.15.16,2,1.31,2.39,3.67s3.38,18.41,3.62,19.49a2,2,0,0,0,2.12,1.81h3.68c1.3,0,2.9-.16,2.9-1.76,0-1.88-3.48-19.87-3.69-21s.31-2.21,1.56-2.22h10.21c1.43,0,2,.35,1.67,1.61a13.81,13.81,0,0,1-1.76,4.21,39.43,39.43,0,0,1-3.48,4.38.9.9,0,0,0,0,1.36s3.48,2.8,3.6,2.88c2,1.35,2.38.87,3.39,0a17.76,17.76,0,0,0,3.56-4.75A25.83,25.83,0,0,0,135.76,22C135.77,19.57,135.93,18.28,135.46,17.44Z"/>
      <path class="cls-1" d="M179.57,13.31H144.16c-1.18,0-1.52.48-1.52,1.8s0,3.67,0,4.5.57,1.66,2.23,1.66,25.5,0,26.53,0c2.45,0,2.63,1,1.7,3.52a16.21,16.21,0,0,1-4.5,6c-1.65,1.27-4.81,2.92-6.12,3-.93.05-2.24-2.26-2.93-3.32-.49-.76-.94-1.8-2.47-1.8s-6.12,0-6.74,0-1.81.14-.76,2c.76,1.39,9.42,16.06,10,17.09a2.34,2.34,0,0,0,2.09,1.48c.83,0,5.87,0,7,0,1.42,0,1.81-.86.73-2.64-.61-1-1.81-2.71-2.46-3.87s-.87-1.5.5-2c1.89-.7,7.87-3.83,10.49-6.93a21,21,0,0,0,4.58-13.65c0-3-.1-3-.1-4C182.37,14.63,181.77,13.31,179.57,13.31Z"/>
      <path class="cls-1" d="M224.55,28.12c-.84,0-2.83,0-3.6-.14a42.41,42.41,0,0,1-8.39-1.8,30,30,0,0,1-9.14-4.66c-1.46-1.2-3-2.37-3-3.48s0-6.08,0-7.25-.49-2-1.8-2h-5.12a1.81,1.81,0,0,0-1.69,2c0,1.18,0,34.84,0,36.15,0,2.24,1,2.24,2.36,2.24h4.31c1.24,0,2-.76,2-2.16,0-1.24,0-15.62,0-16.66s0-1.89,1.81-.7c.93.59,3.08,1.75,4.43,2.5a61.64,61.64,0,0,0,9.16,3.5,48.26,48.26,0,0,0,7.94,1.13c1.25,0,2-.23,2-1.68s0-4.78,0-5.68S225.81,28.13,224.55,28.12Z"/>
      <path class="cls-1" d="M258,16.21a1.66,1.66,0,0,1-1.66-1.66V9.65A1.66,1.66,0,0,0,254.72,8h-5.48a1.67,1.67,0,0,0-1.66,1.66v4.9a1.66,1.66,0,0,1-1.66,1.66H233.23a1.67,1.67,0,0,0-1.66,1.66v4.06a1.66,1.66,0,0,0,1.66,1.66h12.69a1.66,1.66,0,0,1,1.66,1.66V47.73a1.66,1.66,0,0,0,1.66,1.66h5.48a1.65,1.65,0,0,0,1.65-1.66V25.25A1.67,1.67,0,0,1,258,23.59h13a1.66,1.66,0,0,0,1.66-1.66V17.87A1.66,1.66,0,0,0,271,16.21Z"/>
      <rect class="cls-1" x="232.8" y="29.88" width="7.92" height="19.5" rx="1.66"/>
      <rect class="cls-1" x="263.5" y="29.89" width="7.92" height="19.5" rx="1.66"/>
      <path class="cls-1" d="M390.21,14.93a1.66,1.66,0,0,0-1.65-1.66h-34a1.66,1.66,0,0,0-1.66,1.66v4.15a1.66,1.66,0,0,0,1.66,1.66h25.25a1.65,1.65,0,0,1,1.65,1.66V39.19a1.66,1.66,0,0,1-1.65,1.66H354.05a1.66,1.66,0,0,0-1.66,1.66v5a1.66,1.66,0,0,0,1.66,1.66h34.51a1.65,1.65,0,0,0,1.65-1.66Z"/>
      <rect class="cls-1" x="486.7" y="40.96" width="38.98" height="8.3" rx="1.66"/>
      <path class="cls-1" d="M491.25,13.27a1.66,1.66,0,0,0-1.65,1.66v4.34a1.66,1.66,0,0,0,1.65,1.66h29.87a1.67,1.67,0,0,0,1.66-1.66V14.93a1.67,1.67,0,0,0-1.66-1.66Z"/>
      <path class="cls-1" d="M558.88,40.85a1.67,1.67,0,0,1-1.66-1.66V22.68A1.67,1.67,0,0,1,558.88,21h9.68a1.65,1.65,0,0,0,1.65-1.66V14.83a1.66,1.66,0,0,0-1.65-1.66H537a1.67,1.67,0,0,0-1.66,1.66v4.53A1.66,1.66,0,0,0,537,21h9.73a1.67,1.67,0,0,1,1.66,1.66V39.19a1.67,1.67,0,0,1-1.66,1.66H533.88a1.66,1.66,0,0,0-1.66,1.66v5.2a1.66,1.66,0,0,0,1.66,1.66H571.7a1.66,1.66,0,0,0,1.66-1.66v-5.2a1.66,1.66,0,0,0-1.66-1.66Z"/>
      <path class="cls-1" d="M436.73,15a1.53,1.53,0,0,0-1.61-1.54h-5.49a1.61,1.61,0,0,0-1.71,1.35c0,.74-.15,2.63-.15,2.63-1.35,14.87-9.35,21.78-26.57,23l-2.78.14a1.59,1.59,0,0,0-1.34,1.7l0,5.47c0,.91.52,1.64,1.18,1.63l2.44-.1C423,48,434.79,37.68,436.54,18,436.54,18,436.7,15.86,436.73,15Z"/>
      <rect class="cls-1" x="397.18" y="13.49" width="16.59" height="7.47" rx="1.66"/>
      <path class="cls-1" d="M619.57,15A1.53,1.53,0,0,0,618,13.46h-5.48a1.6,1.6,0,0,0-1.71,1.35c0,.74-.16,2.63-.16,2.63-1.34,14.87-9.35,21.78-26.56,23l-2.78.14a1.59,1.59,0,0,0-1.34,1.7l0,5.47c0,.91.53,1.64,1.18,1.63l2.45-.1C605.84,48,617.63,37.68,619.39,18,619.39,18,619.54,15.86,619.57,15Z"/>
      <rect class="cls-1" x="580.03" y="13.49" width="16.59" height="7.47" rx="1.66"/>
      <path class="cls-1" d="M347.62,47.54l-8.36-18.37a3,3,0,0,0-2.48-1.6h-6.56a1,1,0,0,0-1,1.59l2.92,6.48a1.8,1.8,0,0,1-1.15,2l-.15,0-.28.06.27-.06a60.26,60.26,0,0,1-14.91,3.17l.2,0c-.88.05-1.23-.91-.86-1.8l11.08-26.33a1.08,1.08,0,0,0-1.07-1.61h-5.46a2.85,2.85,0,0,0-2.43,1.62L303.66,45.43a3.78,3.78,0,0,0-.07,2.76,2.56,2.56,0,0,0,2.34,1H306a83.71,83.71,0,0,0,28.39-4.36l0,0a1.87,1.87,0,0,1,2.33,1h0l.76,1.7a3,3,0,0,0,2.48,1.6h6.65A1,1,0,0,0,347.62,47.54Z"/>
      <path class="cls-1" d="M451.07,25.68A1.64,1.64,0,0,1,452.68,24H478.5a1.64,1.64,0,0,0,1.64-1.64V18.23a1.63,1.63,0,0,0-1.64-1.63h-1.11a1.08,1.08,0,0,1-1.08-1.54l1.27-3.48A1.07,1.07,0,0,0,476.5,10h-1.39a2.52,2.52,0,0,0-2.2,1.54l-1.26,3.48a2.29,2.29,0,0,1-1.82,1.54c-.69,0-1-.7-.7-1.54l1.27-3.48A1.07,1.07,0,0,0,469.32,10h-1.38a2.52,2.52,0,0,0-2.21,1.54l-1.26,3.48a2.53,2.53,0,0,1-2.2,1.54H452.7a1.65,1.65,0,0,1-1.62-1.66l0,.08V10.5a1.65,1.65,0,0,0-1.65-1.66h-5a1.66,1.66,0,0,0-1.66,1.66V30.19c0,11.76,8.94,19.07,23.33,19.07h12.39a1.66,1.66,0,0,0,1.65-1.66v-5A1.66,1.66,0,0,0,478.49,41H466.1c-6.86,0-15-1.86-15-10.77V25.68Z"/>
    </g>
    <g>
      <path class="cls-2" d="M83.87,27.81c0,15.35-18.77,27.8-41.93,27.8S0,43.16,0,27.81,18.78,0,41.94,0,83.87,12.45,83.87,27.81Z"/>
      <g>
        <g>
          <path class="cls-1" d="M41.94,0A57.31,57.31,0,0,0,17.63,5.15l.58,1.28a56.17,56.17,0,0,1,23.73-5c13,0,24.52,4,31.94,10.14l.89-1.06C67.1,4.11,55.24,0,41.94,0Z"/>
          <path class="cls-1" d="M80.09,18.9a18.49,18.49,0,0,1,2.36,8.91c0,14.56-18.14,26.38-40.51,26.38S1.43,42.37,1.43,27.81c0-5.34,2.45-10.33,6.64-14.48l-1-1C2.62,16.75,0,22.08,0,27.81c0,15.35,18.78,27.8,41.94,27.8s41.94-12.45,41.94-27.8a19.7,19.7,0,0,0-2.57-9.61Z"/>
        </g>
        <g>
          <polygon class="cls-1" points="37.4 47.67 41.19 46.39 39.05 36.32 33.19 41.47 37.4 47.67"/>
          <path class="cls-1" d="M39.1,4.46l-9.74,6.26H18.63l-7.95-6a31.83,31.83,0,0,0,1.32,10A10.4,10.4,0,0,0,16.52,21h6.17l7.57-3.2-.07,1.31a15.52,15.52,0,0,1-1.35,5.8,8.14,8.14,0,0,0,4.08-1.51c3.23-2.05,4.21-6,5.27-9.75A37.58,37.58,0,0,0,39.1,4.46Zm-17.24,12a.93.93,0,0,1-1.26.34,6.68,6.68,0,0,0-3.54-.65.92.92,0,0,1-1-.76.9.9,0,0,1,.76-1.05,8.35,8.35,0,0,1,4.75.87A.92.92,0,0,1,21.86,16.48Zm10.31-1.07a.93.93,0,0,1-1.06.76,6.66,6.66,0,0,0-3.53.65.93.93,0,0,1-1.26-.34.9.9,0,0,1,.33-1.25,8.36,8.36,0,0,1,4.76-.87A.92.92,0,0,1,32.17,15.41Z"/>
          <path class="cls-1" d="M80.35,15.41l-1.26-2.77L59.8,19.83H36.9A9.81,9.81,0,0,1,33.34,24a11.68,11.68,0,0,1-2.82,1.34,6.93,6.93,0,0,1-2.11.36,12.82,12.82,0,0,1-.77,1.2,9.59,9.59,0,0,1-7.95,4A8.88,8.88,0,0,1,14.28,29l-1.54.44,0,1.61,2.93.57L14.34,32l.15,1.7,3.3,1v3l-2.9,3.15,1,1.24,1.13-.31-.55,1L17.59,44,24,40.71l-3,4.46,3.94,2.45L39.6,34.82h8.45L44.69,46l3.52,1.72,8-9.73,9.62,8.92L68.79,45l-6-19.14ZM25.86,38v-7l2.39,3.38Z"/>
          <path class="cls-1" d="M23,21.86h-6.8L9.94,17.54c0,7,4.36,12.61,9.75,12.61A8.76,8.76,0,0,0,27,26.46,13.42,13.42,0,0,0,29.41,19Zm-5,4.3a.66.66,0,0,1-.92.22,4.67,4.67,0,0,0-2-.47.68.68,0,1,1,0-1.35,6,6,0,0,1,2.75.67A.69.69,0,0,1,18,26.16Zm5.77-.27a4.59,4.59,0,0,0-2,.47A.68.68,0,0,1,21,25.21a6,6,0,0,1,2.75-.67.68.68,0,0,1,0,1.35Z"/>
        </g>
      </g>
    </g>
  </g>
</svg>
