<svg id="レイヤー_1" data-name="レイヤー 1" xmlns="http://www.w3.org/2000/svg" width="267" height="21" viewBox="0 0 852.51 68.61">
  <defs>
    <style>
      .cls-1 {
        fill: #231815;
      }

      .cls-2 {
        fill: #fccf00;
      }
    </style>
  </defs>
  <title>logo_yaw</title>
  <g>
    <g>
      <g>
        <g>
          <path class="cls-1" d="M167.19,21.51c-.4-.68-1.68-1.13-3.89-1.13s-22.25,0-23.27,0c-1.81,0-2.3-1-2.64-2.65s-.79-4.41-1.2-6.13a1.77,1.77,0,0,0-2-1.56h-6.58a1.68,1.68,0,0,0-1.84,1.88c.24,1.48.5,4.08.84,5.84.44,2.29.23,2.73-1.56,2.74s-4.71,0-5.48,0c-2.11,0-2.87.18-2.87,2.74s0,2.31,0,3.67c0,1.82.27,2.91,3.15,2.9,0,0,5.55-.06,6.74,0,2.66.2,2.43,1.62,3,4.53s4.18,22.72,4.48,24.06a2.46,2.46,0,0,0,2.62,2.23h4.53c1.62,0,3.58-.19,3.58-2.17,0-2.32-4.3-24.52-4.55-26s.39-2.73,1.92-2.74l12.61,0c1.77,0,2.47.43,2.06,2A17.17,17.17,0,0,1,154.67,37a48,48,0,0,1-4.3,5.4,1.11,1.11,0,0,0,0,1.67s4.29,3.45,4.44,3.55c2.53,1.68,2.95,1.09,4.19,0,1.47-1.34,2.29-2.36,4.39-5.85a31.85,31.85,0,0,0,4.18-14.51C167.57,24.13,167.76,22.55,167.19,21.51Z"/>
          <path class="cls-1" d="M221.64,16.41H177.93c-1.46,0-1.88.6-1.88,2.22s0,4.53,0,5.56.7,2,2.75,2,31.47,0,32.75,0c3,0,3.24,1.26,2.1,4.35a20.15,20.15,0,0,1-5.56,7.37c-2,1.57-5.94,3.6-7.56,3.69-1.14.06-2.76-2.79-3.61-4.1-.61-.94-1.17-2.22-3.05-2.22s-7.55,0-8.32,0-2.23.17-.94,2.52c.94,1.71,11.63,19.82,12.32,21.1a2.9,2.9,0,0,0,2.58,1.83c1,0,7.25,0,8.61,0,1.75,0,2.23-1.06.89-3.26-.75-1.24-2.23-3.34-3-4.78-.69-1.25-1.08-1.85.62-2.48,2.33-.86,9.72-4.73,12.94-8.55,4-4.71,5.63-10.71,5.66-16.85,0-3.74-.12-3.71-.12-4.89C225.1,18,224.35,16.41,221.64,16.41Z"/>
          <path class="cls-1" d="M277.17,34.69c-1.05,0-3.5-.06-4.45-.18a51.93,51.93,0,0,1-10.36-2.22,36.8,36.8,0,0,1-11.28-5.74c-1.8-1.49-3.72-2.93-3.72-4.3s0-7.51,0-9-.61-2.47-2.24-2.47H238.8a2.24,2.24,0,0,0-2.08,2.5c0,1.45,0,43,0,44.62,0,2.76,1.29,2.76,2.91,2.76H245c1.54,0,2.43-.93,2.43-2.66,0-1.54,0-19.29,0-20.57s-.06-2.33,2.23-.87c1.15.74,3.8,2.17,5.47,3.09A76.23,76.23,0,0,0,266.38,44a61.15,61.15,0,0,0,9.8,1.39c1.54,0,2.52-.28,2.52-2.07s0-5.91,0-7S278.72,34.7,277.17,34.69Z"/>
          <path class="cls-1" d="M636.18,30.58a4.46,4.46,0,0,1-1.12-3.28c0-.86.44-.9,1.2-.9h1.62c.72,0,1.48-.33,1.55-1.72,0-.69,0-2.69,0-3.79,0-.79-.16-1.59-1.46-1.6-1.64,0-.57,0-1.64,0-1.47,0-1.3-1.71-1.3-2.39s0-2.76,0-4c0-1.43-.41-2.39-2.29-2.36-.89,0-2.13,0-2.69,0a2,2,0,0,0-2.15,2.34c0,.16,0,2.69,0,4.14s-.65,2.18-1.73,2.18h-2.81c-1.62,0-2.37.7-2.37,1.74v3.52a1.74,1.74,0,0,0,1.78,2l3.45,0c1.28,0,1.65.06,1.6,1.52,0,1.18-1.32,4.3-2.27,6.07A59.78,59.78,0,0,1,622,39.38a6.49,6.49,0,0,0-1,3.85V50.4c0,.77.3,1.61,1.2,1.57.69,0,1.64-1.85,2.12-2.94s2.32-4.84,2.8-6.12c.23-.65.7-.49.64.45,0,.36,0,.81,0,1.27,0,.94,0,13.29,0,14.31s.69,1.75,2.95,1.9a8.73,8.73,0,0,0,1.48,0c1.52,0,3-.71,3-1.92,0-1,0-12.88,0-14.83,0-1.1,0-2.28,0-3.1s.22-1.08.49-1,1.47,2.64,2.07,3.53a2.82,2.82,0,0,0,2,1.37c1,0,1-.81,1-1.9,0-.27,0-4,0-4.14A4.2,4.2,0,0,0,640,36.1C639.65,35.59,637.32,32.05,636.18,30.58Z"/>
          <path class="cls-1" d="M670.46,48.3c-.1-.12-2.18-2.26-4-4a21.43,21.43,0,0,1-3.58-4.49c-.62-1.25-.17-1.79,2.52-1.75,1,0,4.26,0,5.33,0,1.52,0,1.74-.91,1.74-1.93s0-2.67,0-3.62-.75-1.65-2.28-1.7c-1,0-6.84,0-7.64,0A1.57,1.57,0,0,1,661.12,29c0-.59,0-1,0-2s.1-1.72,1.8-1.7c1.17,0,5.8,0,7,0a2,2,0,0,0,2.23-2.17c0-1,0-1.07,0-2.18a2.08,2.08,0,0,0-2.22-2.39h-7.23a1.69,1.69,0,0,1-1.49-1.79c0-.86,0-3.87,0-4.62,0-1.31-.65-2.17-1.84-2.19-.57,0-2.7,0-3.56,0-1.46-.06-2.37.2-2.37,2.31,0,1.15,0,3.06,0,4.5,0,1.84-.87,1.84-1.87,1.79s-1.72-.23-1.79-1.52c0-.52.06-3.06,0-4.16,0-1.53-2-1.63-2.82-1.63-1.13,0-2.63.22-2.63,2.18,0,1.21,0,2,0,3.27a3.82,3.82,0,0,1-1.52,2.82,3.57,3.57,0,0,0-1.25,3c0,1.11,0,3.06,0,4.17,0,1.85.72,1.88,1.62,1.88s2.25-1.08,3.2-2c.63-.6,1-1.22,2.17-1.22H652a1.18,1.18,0,0,1,1.35,1.26c0,.77,0,1.15,0,2.18s-.25,2-1.87,2c-.55,0-4.94,0-6.72,0s-2.31.93-2.31,1.87,0,1.82,0,3.27.44,2.1,2.24,2.17c1.35.06,3.3,0,5.09-.05,2.54,0,2.54.47,1.81,1.91a46.19,46.19,0,0,1-3.86,4.49c-.81.91-4.43,4.4-5.17,5.06a4.29,4.29,0,0,0-1.46,3c0,1.2,0,2.61,0,4.48s-.08,3,1.44,3.08c1.19.05,4-3.64,5.07-5.09.85-1.12,3.83-4.58,4.7-5.91.51-.79,1-.43,1,.93s0,6.26,0,8.56c0,1.54,1,2.39,4,2.35,2.66,0,3.77-.94,3.77-2.28,0-1,0-7.73,0-8.75,0-.39-.12-1.2.42-1.28,0,0,.3-.14,1.09,1,.64.93,3,4,4,5.43,1.13,1.68,3.35,5.11,4.91,5.15,1.26,0,1.31-.85,1.31-2.13,0-.87.08-4.61,0-5.88C672.87,50.3,672,50,670.46,48.3Z"/>
          <path class="cls-1" d="M728.06,48.56c-4.62-3.63-5.73-5.14-8.21-9.28a38.15,38.15,0,0,1-4.11-10.47c-.58-2.75.08-2.93,3.09-2.88,1.25,0,10.13,0,11.3,0A2,2,0,0,0,732.26,24V20.37c0-1.45-.72-1.81-2.45-1.81h-.66c-1.26,0-1.79-.66-1.43-1.64s.44-1.3,1.13-3.44c.53-1.62-1.39-2-2.38-2s-2.55-.24-3.37,1.28a38.5,38.5,0,0,0-1.8,4.09c-.65,1.66-1,1.72-2,1.72-.71,0-1.61,0-2.5,0-1.7,0-1.73-1-1.73-1.79s0-3.18-.08-4.2c-.2-1.69-1.86-2-3.83-2s-3.41.4-3.48,2.26c0,.86,0,2.18,0,3.89s-1.74,1.78-3,1.79-20,.05-21.16,0c-1.93-.06-2.29,1.18-2.29,2.11s0,2,0,3.27c0,2,1.59,2,3,2h22a1.81,1.81,0,0,1,1.89,1.44c.16.84.46,3.94.88,6.21a64.54,64.54,0,0,0,4.23,12,46.7,46.7,0,0,0,6.29,8.89,30.33,30.33,0,0,0,6,5,10.39,10.39,0,0,0,4.24,1.5c.72,0,1.83,0,1.83-1.66,0-2.22,0-6.08,0-7.53S730.8,50.71,728.06,48.56Z"/>
          <path class="cls-1" d="M707.18,47.25c-1.16.35-3,1-5.28,1.47s-2.78-.43-2.79-1.54,0-3.69,0-5,.73-1.67,1.45-1.67h3.76a2.12,2.12,0,0,0,2.25-2.36c0-.69,0-1.19,0-3s-1.89-2.13-3-2.13-16.68,0-17.93,0a2,2,0,0,0-2.23,1.72l0,3.93a1.88,1.88,0,0,0,2,1.73c1.26,0,4.32,0,5.49,0s1.69.07,1.69,1.61-.07,4,0,6-1.53,2.66-3.1,3c-1,.21-4.25,1-5.59,1.28a2.21,2.21,0,0,0-2,2.15v4.47c0,1.7,1.17,1.78,2.61,1.53s8.14-1.73,10-2.16,10.65-2.74,12.44-3.6,2.05-2,2.05-2.64.09-2.69.09-3.71S708.35,46.91,707.18,47.25Z"/>
          <path class="cls-1" d="M789.58,21.73c-1.71-.59-8.19-3.11-9.92-3.8-1.5-.6-6.74-3.27-8.26-4.64-2.81-2.53-3.95-3.31-6-3.4s-3.44,1-6.51,3.52-7.08,4-8,4.55-4.43,2.15-5.71,2.65-3.49,1.28-4.48,1.71-1.41.77-1.41,2.48c0,.07,0,2.59,0,4.34,0,1.43.54,1.84,1.75,1.84a11.81,11.81,0,0,0,3.75-.93c.3-.13,5.43-2.56,5.1-2.56.71,0,0,2.37.93,3.14.73.6,2.95.5,3.83.46,1.75-.07,19.76,0,21.44,0,1.34,0,3.27.2,3.58-.82.19-.66-.28-2.71.36-2.8s3.48,1.71,6.24,2.64a28.59,28.59,0,0,0,2.92.87c.61.14,2,.09,2-1.74,0-1.28,0-4.48,0-5.08A2.13,2.13,0,0,0,789.58,21.73Zm-17.53,2.16c-1.7.06-12.24-.06-13.76,0-1.84.07-2.77-1.22-.75-2.3,2.31-1.24,6.35-5.23,7.65-5.23,1.5,0,4.95,3.81,7.24,5.1C774,22.32,774.38,23.8,772.05,23.89Z"/>
          <path class="cls-1" d="M787.74,35.55H743c-1.09,0-2.3.26-2.3,2.23,0,1.28,0,1.25,0,2.42A2.26,2.26,0,0,0,743,42.45c1.52,0,8.38.06,9.72,0s2.56.77,1.84,2.43a43.73,43.73,0,0,1-2.34,4.26c-.89,1.48-1.4,3-2.73,3.19s-4.92.48-6.41.7c-2,.3-2.77.71-2.86,2.23,0,0,0,2,0,3.32,0,1.92,1,2.57,2.52,2.57S755.6,59.9,755.6,59.9s21.29-2.56,22.73-2.56,1.67,1.41,2.56,2.43a3.56,3.56,0,0,0,2.66,1.09c1.14.19,4.79.08,6.48.07,1.38,0,1-1.8.57-2.49-.87-1.35-7.73-11.66-8.22-12.22a4.24,4.24,0,0,0-3.25-1l-3.67,0c-1.43,0-2,.73-.78,2.7.69,1.16,1.23,2-.38,2.24s-10,1.21-12.14,1.21-1.61-1.63-1-2.87c.47-1,1.14-2,1.77-3.46s1.05-2.74,2.31-2.74l22.41,0c2.41,0,2.86-1.46,2.86-2.32V37.68C790.5,36,789.08,35.55,787.74,35.55Z"/>
          <path class="cls-1" d="M852.5,54.3a2.12,2.12,0,0,0-2-2h-5.61c-1.52,0-2-.43-2-1.46s0-14.93,0-16.62c0-1.39.64-2.82,1.63-2.82h5.81c1.44,0,1.89-1.61,1.9-4.08,0-1.36-.49-3.53-2.13-3.53h-5.11c-1.34,0-2.13-.21-2.13-2.26s-.09-7.53,0-8.89-.54-2.48-4.18-2.46c-4,0-4.45.9-4.33,2.45.08.93,0,8,0,9.07a2,2,0,0,1-1.77,2.07h-5.29c-1.43,0-1.67,2-1.67,3.63,0,2.48.33,3.92,1.84,3.95.62,0,2.33,0,4.12,0a3.08,3.08,0,0,1,2.79,2.87c0,.94,0,15.7,0,16.64a1.48,1.48,0,0,1-1.52,1.47h-6.39a1.89,1.89,0,0,0-1.79,1.93c0,1.12,0,2.89,0,4.26a2.2,2.2,0,0,0,2.37,2c1.17,0,21.87,0,23.48,0a1.93,1.93,0,0,0,2.07-2C852.51,57.67,852.51,55.49,852.5,54.3Z"/>
        </g>
        <path class="cls-1" d="M802,19.2c-2.42,0-2.3,1.83-2.3,1.83v3.62a2.07,2.07,0,0,0,2.38,1.91c1.31,0,8.78,0,8.78,0s.67,0,1.08,0c1.11,0,1,1,.75,1.5-1.17,2.24-2.36,6.06-12.21,14.34-1.58,1.33-1.13,2.67-1.24,3.76-.05.49,0,5.34,0,5.34a4.37,4.37,0,0,0,.16,1.55,1.57,1.57,0,0,0,1.77.37,4.68,4.68,0,0,0,1.33-1,75.4,75.4,0,0,0,5.29-5.68c.17-.2.77-.41.77.45v12s.31,1.91,3.82,1.91,4-1.32,4-1.95,0-13.28,0-13.28,0,.27,0-.32c0-1.38.08-1.29,1.15-.85s3.17,2.05,4,2.34c1.08.36,1.91-.86,2.84-2.94,1.34-3,.7-4-1.78-5.24l-3.77-2.06-.47-.23a1.66,1.66,0,0,1-.75-2.65c1.34-2.21,2.78-5,2.78-5a27,27,0,0,0,1.48-3,7.5,7.5,0,0,0,.58-2.1c.35-2.86-1-4.65-2.89-4.65H817.5a1.21,1.21,0,0,1-1.31-1.31V13.29c0-.91.35-2.57-2.65-2.57h-3c-1.91,0-2.08,1.64-2.08,2.51v4.61A1.49,1.49,0,0,1,807,19.16Z"/>
      </g>
      <path class="cls-1" d="M413.73,35c-1,0-3.46,0-4.4-.17a51.8,51.8,0,0,1-10.23-2.2A36.39,36.39,0,0,1,388,27c-1.78-1.47-3.67-2.9-3.67-4.25s0-7.42,0-8.85-.6-2.44-2.2-2.44h-6.24a2.22,2.22,0,0,0-2.06,2.47c0,1.43,0,42.48,0,44.08,0,2.73,1.28,2.73,2.88,2.73h5.25c1.52,0,2.41-.92,2.41-2.63,0-1.52,0-19,0-20.32s-.06-2.31,2.2-.86c1.14.73,3.75,2.15,5.4,3.05a75.2,75.2,0,0,0,11.17,4.28,59.58,59.58,0,0,0,9.69,1.37c1.51,0,2.49-.28,2.49-2s0-5.83,0-6.93S415.26,35.05,413.73,35Z"/>
      <rect class="cls-1" x="336.84" y="34.99" width="30.37" height="9.28" rx="2.02"/>
      <rect class="cls-1" x="473.36" y="34.99" width="30.37" height="9.28" rx="2.02"/>
      <path class="cls-1" d="M314.47,29.11"/>
      <path class="cls-1" d="M467.87,20.31V18.15a2,2,0,0,0-2-2h-43.5a2,2,0,0,0-2,2v16.7a2,2,0,0,0,2,2h6.53a2,2,0,0,0,2-2V27.11a2,2,0,0,1,1.95-2h22.7a2,2,0,0,1,1.79,2l0-.72v3c0,12.14-16.66,20.44-32.91,21.07h0a2,2,0,0,0-2,2v6.53a2,2,0,0,0,2,2h0c10.26-.32,20.48-3.18,28.29-7.94,9.75-5.94,15.12-14.33,15.12-23.63v-9Z"/>
      <path class="cls-1" d="M556.36,23.26V18.62a2,2,0,0,0-2-2H532.45l-.54,0c-.56,0-.19-.79-.07-1.15l.44-1.29c.22-.89-.41-1.06-1.1-1.05H523a2,2,0,0,0-1.76,1l-.13.28c-2.29,5.11-5.41,9.11-11.05,10.63l-.39.1A1.8,1.8,0,0,0,508.47,27v6.51c0,1.11.83,2.23,2,2l.37-.1a31.18,31.18,0,0,0,14.87-9l.09-.09a2,2,0,0,1,1.44-.6H543c2.66,0,2.05,1.84,2,2l0,.1a29.55,29.55,0,0,1-8,13.13c-4.4,4.23-12.07,8.73-23.71,9.17h0a2,2,0,0,0-1.88,2V58.7a2,2,0,0,0,2,2v0c12.06-.37,22.81-4.18,31-12.08,7.3-7,11.86-16.61,12-25.12Z"/>
      <path class="cls-1" d="M610.55,48.48,602.12,44l-.51-.3a1.3,1.3,0,0,1,0-1.82c5.33-6.13,9-13.13,9-17.88h0V18.62a2,2,0,0,0-2-2H566.29a2,2,0,0,0-2,2V24a2,2,0,0,0,2,2h30.28c1,.13,2.14.66,1.48,2.24s-2.66,6-10,11.79c-8.87,7-20.93,9.2-21.45,9.29l-.71.19c-1.42.21-2,1-2,2.11V58.6A2,2,0,0,0,566,60.72h0c1.33-.29,14.19-3.14,24.42-9.31a2.32,2.32,0,0,1,2.33-.36l17.82,9.57a1.11,1.11,0,0,0,1.78-1.07V51.46A3.74,3.74,0,0,0,610.55,48.48Z"/>
      <path class="cls-1" d="M316.49,48.07l0-2.6c0-1.11-.22-1.43-.88-1.18l-.44.25s-.28.15-.76.46A53.64,53.64,0,0,1,296,52.19a57.74,57.74,0,0,1-8.23.83,2,2,0,0,1-2-2l.05-5.4a2.09,2.09,0,0,1,2-2,41.66,41.66,0,0,0,6.36-.66A45.1,45.1,0,0,0,310,36.58a18.21,18.21,0,0,0,5.58-6l.18-.39c.24-.91-.4-1.05-1.05-1.05H287.06a2,2,0,0,1-2-2V22a2,2,0,0,1,2-2h27.41a2,2,0,0,0,2-2V13.67a2,2,0,0,1,2-2h6.67a2,2,0,0,1,2,2V18a2,2,0,0,0,2,2h4.44a2,2,0,0,1,2,2v5.05a2,2,0,0,1-2,2h-4.44a2,2,0,0,0-2,2V58.73a2,2,0,0,1-2,2h-6.67a2,2,0,0,1-2-2v-10"/>
    </g>
    <g>
      <path class="cls-2" d="M103.47,34.31c0,18.94-23.16,34.3-51.73,34.3S0,53.25,0,34.31,23.17,0,51.74,0,103.47,15.36,103.47,34.31Z"/>
      <g>
        <g>
          <path class="cls-1" d="M51.74,0a70.72,70.72,0,0,0-30,6.35l.73,1.58A69.19,69.19,0,0,1,51.74,1.76c16,0,30.25,4.9,39.4,12.52L92.25,13C82.77,5.06,68.15,0,51.74,0Z"/>
          <path class="cls-1" d="M98.8,23.32a22.61,22.61,0,0,1,2.92,11c0,18-22.38,32.54-50,32.54s-50-14.57-50-32.54c0-6.6,3-12.73,8.19-17.86L8.77,15.2C3.23,20.66,0,27.23,0,34.31c0,18.94,23.16,34.3,51.74,34.3s51.74-15.36,51.74-34.3a24.23,24.23,0,0,0-3.17-11.85Z"/>
        </g>
        <g>
          <polygon class="cls-1" points="46.13 58.81 50.81 57.23 48.17 44.82 40.94 51.16 46.13 58.81"/>
          <path class="cls-1" d="M48.23,5.5l-12,7.72H23L13.17,5.78A38.92,38.92,0,0,0,14.8,18.13c1.7,5.75,5.57,7.76,5.57,7.76H28l9.33-3.95-.09,1.61a19.24,19.24,0,0,1-1.66,7.16,9.93,9.93,0,0,0,5-1.88c4-2.52,5.19-7.34,6.5-12A46.27,46.27,0,0,0,48.23,5.5ZM27,20.33a1.14,1.14,0,0,1-1.55.41A8.22,8.22,0,0,0,21,20a1.14,1.14,0,0,1-.37-2.24,10.31,10.31,0,0,1,5.88,1.07A1.14,1.14,0,0,1,27,20.33ZM39.68,19a1.13,1.13,0,0,1-1.3.94,8.18,8.18,0,0,0-4.36.79,1.13,1.13,0,0,1-1.14-2,10.29,10.29,0,0,1,5.87-1.07A1.12,1.12,0,0,1,39.68,19Z"/>
          <path class="cls-1" d="M99.12,19l-1.55-3.4-23.8,8.86H45.52a12.17,12.17,0,0,1-4.4,5.18,14.28,14.28,0,0,1-3.46,1.65,8.58,8.58,0,0,1-2.61.44,15.57,15.57,0,0,1-1,1.48,11.81,11.81,0,0,1-9.8,4.94,10.92,10.92,0,0,1-6.67-2.35l-1.91.54,0,2,3.6.71-1.67.44.19,2.09,4.06,1.19v3.65L18.37,50.3l1.28,1.52L21,51.44l-.68,1.25,1.33,1.6,7.94-4.07-3.72,5.5,4.85,3L48.85,43H59.27L55.13,56.7l4.34,2.12,9.92-12,11.85,11,3.63-2.34L77.42,31.87ZM31.9,46.82V38.17l3,4.16Z"/>
          <path class="cls-1" d="M28.39,27H20l-7.76-5.32c0,8.59,5.39,15.56,12,15.56a10.83,10.83,0,0,0,9-4.55,16.6,16.6,0,0,0,3-9.15ZM22.2,32.28a.83.83,0,0,1-1.15.26A5.81,5.81,0,0,0,18.54,32a.84.84,0,0,1,0-1.67,7.25,7.25,0,0,1,3.39.83A.84.84,0,0,1,22.2,32.28Zm7.11-.34a5.61,5.61,0,0,0-2.5.58.84.84,0,0,1-1.15-.27.83.83,0,0,1,.26-1.15,7.4,7.4,0,0,1,3.39-.83.85.85,0,0,1,.84.84A.84.84,0,0,1,29.31,31.94Z"/>
        </g>
      </g>
    </g>
  </g>
</svg>
