<svg id="レイヤー_1" data-name="レイヤー 1" xmlns="http://www.w3.org/2000/svg" width="220" height="22" viewBox="0 0 595.63 60.53">
  <defs>
    <style>
      .cls-1 {
        fill: #231815;
      }

      .cls-2 {
        fill: #fccf00;
      }
    </style>
  </defs>
  <title>logo_ylc</title>
  <g>
    <g>
      <g>
        <path class="cls-1" d="M147.51,19c-.35-.6-1.48-1-3.43-1s-19.64,0-20.54,0c-1.59,0-2-.91-2.32-2.34s-.7-3.89-1.06-5.41a1.55,1.55,0,0,0-1.74-1.37h-5.81A1.48,1.48,0,0,0,111,10.52c.21,1.3.44,3.59.74,5.14.39,2,.21,2.42-1.37,2.42s-4.16,0-4.84,0c-1.86,0-2.53.16-2.53,2.42s0,2,0,3.24c0,1.61.24,2.57,2.79,2.56,0,0,4.89-.06,5.95,0,2.34.18,2.14,1.44,2.6,4s3.68,20,3.94,21.23a2.19,2.19,0,0,0,2.32,2h4c1.42,0,3.16-.17,3.16-1.91,0-2.05-3.8-21.64-4-22.92s.34-2.41,1.7-2.42h11.12c1.56,0,2.18.38,1.82,1.75a15.3,15.3,0,0,1-1.92,4.59,41.77,41.77,0,0,1-3.79,4.77,1,1,0,0,0,0,1.48s3.79,3,3.92,3.13c2.23,1.48,2.6,1,3.69,0,1.3-1.18,2-2.09,3.88-5.16A28.28,28.28,0,0,0,147.84,24C147.85,21.29,148,19.89,147.51,19Z"/>
        <path class="cls-1" d="M195.55,14.42H157c-1.28,0-1.66.53-1.66,2s0,4,0,4.9.62,1.81,2.43,1.81l28.9,0c2.66,0,2.86,1.12,1.85,3.84a17.71,17.71,0,0,1-4.91,6.51c-1.79,1.39-5.24,3.18-6.67,3.26-1,0-2.43-2.47-3.18-3.62-.54-.83-1-2-2.69-2l-7.34,0c-.68,0-2,.15-.84,2.23.83,1.51,10.27,17.48,10.88,18.61a2.54,2.54,0,0,0,2.28,1.61c.9,0,6.39,0,7.59,0,1.54,0,2-.93.79-2.87-.67-1.09-2-2.95-2.68-4.22-.61-1.1-.95-1.63.55-2.18,2-.76,8.57-4.18,11.42-7.55a22.91,22.91,0,0,0,5-14.87c0-3.3-.11-3.27-.11-4.31C198.6,15.86,197.94,14.42,195.55,14.42Z"/>
        <path class="cls-1" d="M244.55,30.42c-.92,0-3.09-.05-3.93-.16a46.6,46.6,0,0,1-9.14-2,32.19,32.19,0,0,1-9.95-5.07c-1.59-1.31-3.28-2.58-3.28-3.79s0-6.63,0-7.9-.54-2.19-2-2.19l-5.57,0a2,2,0,0,0-1.84,2.2c0,1.28,0,37.93,0,39.37,0,2.44,1.14,2.44,2.58,2.44h4.69c1.35,0,2.14-.83,2.14-2.35,0-1.36,0-17,0-18.15s-.05-2.06,2-.77c1,.65,3.35,1.92,4.83,2.73a68.23,68.23,0,0,0,10,3.82,54.59,54.59,0,0,0,8.66,1.23c1.35,0,2.22-.25,2.22-1.83s0-5.22,0-6.2S245.92,30.43,244.55,30.42Z"/>
      </g>
      <path class="cls-1" d="M401.53,42.54l-7.45-4-.45-.26c-.62-.54-.17-1.39,0-1.61,4.71-5.41,7.9-11.58,7.9-15.77h0V16.18a1.78,1.78,0,0,0-1.78-1.78H362.46a1.78,1.78,0,0,0-1.78,1.78V21a1.78,1.78,0,0,0,1.78,1.78h26.73c.85.12,1.88.58,1.3,2s-2.34,5.3-8.82,10.4c-7.83,6.15-18.48,8.13-18.93,8.2l-.64.17c-1.25.19-1.79.86-1.79,1.86v6.12a1.74,1.74,0,0,0,1.87,1.87h0c1.18-.25,12.53-2.77,21.56-8.22a2,2,0,0,1,2.06-.31l15.73,8.44a1,1,0,0,0,1.57-.94V45.16A3.28,3.28,0,0,0,401.53,42.54Z"/>
      <path class="cls-1" d="M495.2,18.91c-5.51,4.93-11.39,7.86-18.87,10.4a55.13,55.13,0,0,1-13.84,2.55l-.22,0A1.36,1.36,0,0,0,461,33.16l-.09,5.22a1.06,1.06,0,0,0,1.2,1.08h.23a68.29,68.29,0,0,0,13.73-2.18,1,1,0,0,1,1.2.95v13.9a1.26,1.26,0,0,0,1.3,1.23h6a1.27,1.27,0,0,0,1.31-1.23V35.42a2.4,2.4,0,0,1,1-1.79,38.36,38.36,0,0,0,8.6-4.78l.14-.12A4.53,4.53,0,0,0,497,25.32V19.54C497,18.38,496.12,18.08,495.2,18.91Z"/>
      <path class="cls-1" d="M546.65,20.28V16.19a1.79,1.79,0,0,0-1.78-1.79h-19.8c-.49,0-.17-.7-.05-1l.38-1.13c.2-.79-.36-1-1-.93h-7.19a1.82,1.82,0,0,0-1.56.88l-.12.25c-2,4.51-4.77,8-9.74,9.38l-.34.09a1.58,1.58,0,0,0-1.09,1.64v5.74c0,1,.73,2,1.74,1.77l.32-.08A27.63,27.63,0,0,0,519.57,23l.08-.08a1.79,1.79,0,0,1,1.27-.53h14c2.35,0,1.81,1.63,1.78,1.78l0,.08a26.1,26.1,0,0,1-7.09,11.6c-3.88,3.73-10.64,7.7-20.92,8.09h0A1.79,1.79,0,0,0,507,45.74v5.82a1.8,1.8,0,0,0,1.74,1.78h0c10.64-.33,20.13-3.69,27.39-10.66,6.44-6.18,10.46-14.66,10.55-22.17Z"/>
      <path class="cls-1" d="M594.06,42.52l-7.44-4-.45-.27a1.14,1.14,0,0,1,0-1.6c4.7-5.41,7.89-11.59,7.89-15.78h0V16.16a1.78,1.78,0,0,0-1.78-1.78H555a1.78,1.78,0,0,0-1.78,1.78v4.78A1.79,1.79,0,0,0,555,22.73h26.73c.85.11,1.89.58,1.31,2S580.68,30,574.2,35.1c-7.83,6.15-18.48,8.13-18.93,8.21l-.64.16c-1.25.19-1.8.87-1.8,1.87v6.11a1.76,1.76,0,0,0,1.88,1.88h0c1.17-.26,12.53-2.77,21.56-8.22a2,2,0,0,1,2.06-.32l15.73,8.44a1,1,0,0,0,1.57-.93V45.15A3.29,3.29,0,0,0,594.06,42.52Z"/>
      <g>
        <path class="cls-1" d="M306.77,13.21h15.16a1.44,1.44,0,0,1,1.44,1.44v4.06a1.44,1.44,0,0,1-1.44,1.44H306.77a1.45,1.45,0,0,1-1.45-1.45V14.65A1.44,1.44,0,0,1,306.77,13.21Z"/>
        <path class="cls-1" d="M306.77,24.89h15.16a1.44,1.44,0,0,1,1.44,1.44v4.06a1.44,1.44,0,0,1-1.44,1.44H306.77a1.44,1.44,0,0,1-1.44-1.44V26.34A1.45,1.45,0,0,1,306.77,24.89Z"/>
        <path class="cls-1" d="M350.16,9.21h-2c-.85,0-1.81.95-2.12,2.12l-.56,1.79c-.18.73-.63.87-1.45.89h-3.34a1.75,1.75,0,0,0-1.86,1.47c0,.8-.16,3.14-.16,3.14-1.47,16.17-10.17,23.69-28.89,25,0,0-2.23.13-3,.15a1.73,1.73,0,0,0-1.46,1.85l-.05,6c0,1,.57,1.79,1.28,1.77l2.66-.11c24.29-1.44,37.11-12.6,39-34,0,0,.05-.75.1-1.59a3.19,3.19,0,0,0,1.4-1.9l1.38-4.43C351.46,10.16,351,9.21,350.16,9.21Z"/>
        <path class="cls-1" d="M357.61,9.21h-1.95c-.85,0-1.8.95-2.12,2.12l-1.39,4.43c-.31,1.16.13,2.11,1,2.11h1.94c.86,0,1.81-.95,2.12-2.11l1.39-4.43C358.91,10.16,358.46,9.21,357.61,9.21Z"/>
      </g>
      <g>
        <path class="cls-1" d="M414.94,11.75h36.82a1.44,1.44,0,0,1,1.44,1.44V18a1.44,1.44,0,0,1-1.44,1.44H414.94A1.45,1.45,0,0,1,413.49,18V13.19A1.44,1.44,0,0,1,414.94,11.75Z"/>
        <path class="cls-1" d="M454.6,23.9H412.09a1.45,1.45,0,0,0-1.44,1.44v5.19A1.45,1.45,0,0,0,412.09,32h18.52c.79,0,1.14.53,1,1.38a8.43,8.43,0,0,1-1.26,3.55,12.38,12.38,0,0,1-3.44,3.53,20.78,20.78,0,0,1-9.54,3.69c-.71.09-1.38.14-2,.18h-.32a1.42,1.42,0,0,0-1.35,1.47V51.9a1.4,1.4,0,0,0,1.35,1.44h.47a29.52,29.52,0,0,0,16.08-5.4,21.5,21.5,0,0,0,9.11-14.54v0A2,2,0,0,1,442.56,32h12A1.45,1.45,0,0,0,456,30.53V25.34A1.45,1.45,0,0,0,454.6,23.9Z"/>
      </g>
      <path class="cls-1" d="M254.91,13.21a1.45,1.45,0,0,0-1.44,1.44V50.7a1.45,1.45,0,0,0,1.44,1.44h40.86a1.45,1.45,0,0,0,1.44-1.44V14.65a1.45,1.45,0,0,0-1.44-1.44Zm9,30.81a1.44,1.44,0,0,1-1.44-1.44v-20a1.44,1.44,0,0,1,1.44-1.44h22.85a1.45,1.45,0,0,1,1.44,1.44v20A1.45,1.45,0,0,1,286.77,44Z"/>
    </g>
    <g>
      <path class="cls-2" d="M91.29,30.27C91.29,47,70.8,60.53,45.65,60.53,20.34,60.53,0,47,0,30.27S20.34,0,45.65,0C70.8,0,91.29,13.54,91.29,30.27Z"/>
      <g>
        <g>
          <path class="cls-1" d="M45.65,0A62.29,62.29,0,0,0,19.06,5.67l.65,1.4a60.94,60.94,0,0,1,25.94-5.5c14.11,0,26.65,4.37,34.81,11l1-1.17C73,4.52,60.12,0,45.65,0Z"/>
          <path class="cls-1" d="M87.12,20.63a19.54,19.54,0,0,1,2.61,9.64C89.73,46.13,69.94,59,45.65,59,21.2,59,1.57,46.13,1.57,30.27c0-5.89,2.53-11.19,7.14-15.76L7.66,13.39C2.88,18.26,0,24.12,0,30.27,0,47,20.33,60.53,45.65,60.53,70.81,60.53,91.3,47,91.3,30.27a21.12,21.12,0,0,0-2.82-10.41Z"/>
        </g>
        <g>
          <polygon class="cls-1" points="40.65 51.95 44.83 50.54 42.47 39.64 36.02 45.13 40.65 51.95"/>
          <path class="cls-1" d="M42.52,4.91,32,11.62H20.17L11.58,5.16A34.07,34.07,0,0,0,13,16c1.51,5.13,5,6.92,5,6.92h6.63L33,19.4l-.08,1.44a16.54,16.54,0,0,1-1.48,6.22,8.11,8.11,0,0,0,4.33-1.68c3.54-2.08,4.62-6.38,5.79-10.55A40,40,0,0,0,42.52,4.91ZM23.71,18a1,1,0,0,1-1.38.37,7,7,0,0,0-3.73-.71,1,1,0,0,1-.33-2,8.93,8.93,0,0,1,5.08.95A1,1,0,0,1,23.71,18ZM34.9,16.79a.86.86,0,0,1-1,.83,7.3,7.3,0,0,0-3.89.71,1,1,0,1,1-1-1.75,9.17,9.17,0,0,1,5.23-.95A1,1,0,0,1,34.9,16.79Z"/>
          <path class="cls-1" d="M87.42,16.78l-1.4-3-20.89,7.9h-25a10.46,10.46,0,0,1-3.93,4.45,12.45,12.45,0,0,1-2.92,1.48,7.83,7.83,0,0,1-2.33.39,15.55,15.55,0,0,1-.85,1.32,10.58,10.58,0,0,1-8.74,4.41,9.34,9.34,0,0,1-5.8-2.1l-1.69.48,0,1.78,3.21.63-1.49.39.17,1.86,3.46,1.06v3.1l-3,3.47,1.14,1.35,1.24-.34L18,46.5,19,47.92l7.06-3.63L22.78,49.2l4.33,2.7L43.07,38H52.2L48.68,50.07,52.38,52l8.85-10.69,10.4,9.8L74.87,49,68.22,28.09ZM28.12,41.26V33.71l2.63,3.71Z"/>
          <path class="cls-1" d="M25,23.88H17.68l-6.92-4.75c0,7.5,4.81,13.72,10.58,13.72a9.67,9.67,0,0,0,8.05-4.06,14.3,14.3,0,0,0,2.64-8Zm-5.52,4.58a.57.57,0,0,1-.86.23,5.15,5.15,0,0,0-2.24-.51.74.74,0,0,1-.74-.74.75.75,0,0,1,.74-.75,5.57,5.57,0,0,1,2.86.74A.75.75,0,0,1,19.47,28.46Zm6.34-.3a5.11,5.11,0,0,0-2.23.51.74.74,0,1,1-.79-1.26,6.45,6.45,0,0,1,3-.74.75.75,0,0,1,.75.74A.76.76,0,0,1,25.81,28.16Z"/>
        </g>
      </g>
    </g>
  </g>
</svg>
