<svg id="レイヤー_1" data-name="レイヤー 1" xmlns="http://www.w3.org/2000/svg" width="301" height="23" viewBox="0 0 855.99 65.63">
  <defs>
    <style>
      .cls-1 {
        fill: #fccf00;
      }

      .cls-2 {
        fill: #231815;
      }
    </style>
  </defs>
  <title>logo_yfn</title>
  <g>
    <g>
      <path class="cls-1" d="M99,32.81c0,18.12-22.16,32.81-49.49,32.81S0,50.93,0,32.81,22.16,0,49.49,0,99,14.69,99,32.81Z"/>
      <g>
        <g>
          <path class="cls-2" d="M49.49,0a67.65,67.65,0,0,0-28.7,6.08l.71,1.5a66.14,66.14,0,0,1,28-5.9c15.31,0,28.94,4.69,37.69,12l1.06-1.26C79.17,4.84,65.19,0,49.49,0Z"/>
          <path class="cls-2" d="M94.5,22.3a21.64,21.64,0,0,1,2.8,10.51C97.3,50,75.9,63.94,49.49,63.94S1.69,50,1.69,32.81c0-6.3,2.88-12.18,7.83-17.08l-1.13-1.2C3.09,19.76,0,26,0,32.81,0,50.93,22.16,65.63,49.49,65.63S99,50.93,99,32.81a23.2,23.2,0,0,0-3-11.33Z"/>
        </g>
        <g>
          <polygon class="cls-2" points="44.13 56.24 48.6 54.73 46.08 42.87 39.16 48.93 44.13 56.24"/>
          <path class="cls-2" d="M46.14,5.26l-11.5,7.38H22l-9.4-7.11a37.52,37.52,0,0,0,1.57,11.81c1.62,5.5,5.32,7.42,5.32,7.42h7.29L35.7,21l-.08,1.53A18.51,18.51,0,0,1,34,29.37a9.61,9.61,0,0,0,4.82-1.79c3.8-2.42,5-7,6.21-11.5A44.56,44.56,0,0,0,46.14,5.26ZM25.79,19.44a1.08,1.08,0,0,1-1.48.4,7.82,7.82,0,0,0-4.18-.77,1.08,1.08,0,1,1-.36-2.13,9.74,9.74,0,0,1,5.62,1A1.09,1.09,0,0,1,25.79,19.44ZM38,18.18a1.08,1.08,0,0,1-1.25.89,7.8,7.8,0,0,0-4.17.77A1.09,1.09,0,1,1,31.45,18a9.77,9.77,0,0,1,5.62-1A1.07,1.07,0,0,1,38,18.18Z"/>
          <path class="cls-2" d="M94.82,18.17l-1.49-3.25L70.57,23.4h-27a11.75,11.75,0,0,1-4.2,5A14.05,14.05,0,0,1,36,29.93a8.16,8.16,0,0,1-2.5.42c-.28.48-.58.95-.91,1.41a11.32,11.32,0,0,1-9.37,4.74,10.46,10.46,0,0,1-6.39-2.26L15,34.76l0,1.9,3.45.68-1.6.42.18,2L21,40.9v3.49l-3.42,3.72,1.22,1.46,1.34-.37-.66,1.2,1.28,1.52L28.35,48,24.78,53.3l4.64,2.89L46.73,41.08h10L52.74,54.23l4.14,2,9.49-11.47L77.71,55.3l3.47-2.24L74.06,30.48ZM30.51,44.78V36.5l2.83,4Z"/>
          <path class="cls-2" d="M27.16,25.78h-8l-7.42-5.09c0,8.22,5.15,14.89,11.52,14.89a10.36,10.36,0,0,0,8.63-4.35,15.9,15.9,0,0,0,2.83-8.76Zm-5.93,5.09a.8.8,0,0,1-1.1.26,5.39,5.39,0,0,0-2.39-.55.8.8,0,1,1,0-1.6,6.94,6.94,0,0,1,3.24.79A.8.8,0,0,1,21.23,30.87ZM28,30.55a5.46,5.46,0,0,0-2.4.55.8.8,0,0,1-.85-1.35A7,7,0,0,1,28,29a.8.8,0,0,1,0,1.6Z"/>
        </g>
      </g>
    </g>
    <g>
      <g>
        <path class="cls-2" d="M571.32,27.56c-.31-.53-1.31-.88-3-.88s-17.31,0-18.1,0c-1.4,0-1.79-.81-2.05-2.06s-.61-3.44-.93-4.77a1.38,1.38,0,0,0-1.53-1.22h-5.12a1.32,1.32,0,0,0-1.44,1.47c.19,1.15.39,3.17.65,4.53.35,1.79.19,2.13-1.21,2.14H534.3c-1.64,0-2.23.14-2.23,2.13s0,1.79,0,2.86c0,1.41.21,2.26,2.46,2.25,0,0,4.32-.05,5.24,0,2.07.16,1.89,1.27,2.3,3.52s3.24,17.68,3.47,18.72a1.92,1.92,0,0,0,2,1.73h3.53c1.25,0,2.79-.15,2.79-1.69,0-1.8-3.35-19.07-3.55-20.2s.3-2.12,1.5-2.13h9.81c1.37,0,1.92.33,1.59,1.54a13.22,13.22,0,0,1-1.68,4,39.78,39.78,0,0,1-3.34,4.2c-.57.7-.19,1.09,0,1.3l3.45,2.77c2,1.3,2.29.84,3.26,0a17.36,17.36,0,0,0,3.42-4.55A24.91,24.91,0,0,0,571.6,32C571.61,29.61,571.77,28.37,571.32,27.56Z"/>
        <path class="cls-2" d="M370.23,48c7.64-.33,13.25-2.55,17.08-6.76,2.58-2.82,3.42-6.25,3.67-9.67l0-.28a1.48,1.48,0,0,0-1.5-1.64H369.83A1.65,1.65,0,0,1,368.19,28V22.24a1.65,1.65,0,0,1,1.64-1.65h19.56A1.65,1.65,0,0,0,391,18.94V11.77a1.65,1.65,0,0,1,1.64-1.64h6.78a1.65,1.65,0,0,1,1.65,1.64v7.17a1.65,1.65,0,0,0,1.65,1.65h12.43a1.65,1.65,0,0,1,1.65,1.65V28s-.74,1.65-1.65,1.65H402.86a1.82,1.82,0,0,0-1.78,1.64v.34c-.3,5.14-1.55,11.18-6.31,16.4-5.73,6.28-14,9.66-24.51,10,0,0-.7,0-.83,0a1.34,1.34,0,0,1-1.23-1.39V49.85A2,2,0,0,1,369.82,48Z"/>
        <g>
          <rect class="cls-2" x="479.94" y="14.53" width="19.55" height="7.53" rx="1.56"/>
          <path class="cls-2" d="M481.51,27.2h16.42a1.56,1.56,0,0,1,1.56,1.56v4.4a1.56,1.56,0,0,1-1.56,1.56H481.5a1.56,1.56,0,0,1-1.56-1.56v-4.4A1.57,1.57,0,0,1,481.51,27.2Z"/>
          <path class="cls-2" d="M526.68,17.53a1.82,1.82,0,0,0-1.9-1.82h-6.47a1.9,1.9,0,0,0-2,1.6c0,.87-.18,3.1-.18,3.1-1.59,17.52-11,25.66-31.3,27.09,0,0-2.42.13-3.27.16a1.87,1.87,0,0,0-1.59,2l0,6.45c0,1.08.61,1.94,1.39,1.92l2.88-.12c26.32-1.56,40.21-13.65,42.28-36.82C526.46,21.09,526.64,18.54,526.68,17.53Z"/>
        </g>
        <path class="cls-2" d="M317.62,17.38a2,2,0,0,0-2-1.95H274.14a2,2,0,0,0-1.95,1.95v4.89a2,2,0,0,0,1.95,1.95h30.94a2,2,0,0,1,1.95,1.9c-2.14,15.5-19.92,20.09-30.28,21.44h-.07a2.26,2.26,0,0,0-1.93,2.19v6.5A1.73,1.73,0,0,0,276.7,58h.09c25.61-2.88,40.83-15.87,40.83-35Z"/>
        <g>
          <path class="cls-2" d="M586.73,12.5a2.16,2.16,0,0,0-2.15,2.16V25c0,5.95-.81,12.45-6.72,19.59a6.6,6.6,0,0,0-1.34,3.67v8.61a1.23,1.23,0,0,0,.55,1.21,1.2,1.2,0,0,0,1.24-.35c9.83-7.3,15.45-19.47,15.45-33.42v-9.6a2.16,2.16,0,0,0-2.16-2.16Z"/>
          <path class="cls-2" d="M627,35.15c0-1.07-.55-1.26-1.23-.43h0a43,43,0,0,1-9.62,9.12,28.59,28.59,0,0,1-5.8,3V14.47a2,2,0,0,0-2-2h-5.86a2,2,0,0,0-2,2v41.6a1.83,1.83,0,0,0,1.64,2h.43c.13,0,1.88-.09,3.41-.32h0A31.12,31.12,0,0,0,620,52a30.75,30.75,0,0,0,5.63-4.82l.18-.24A5.9,5.9,0,0,0,627,43.65Z"/>
        </g>
        <g>
          <path class="cls-2" d="M471.47,17.5a1.81,1.81,0,0,0-1.9-1.81h-6.46a1.88,1.88,0,0,0-2,1.59c0,.87-.19,3.1-.19,3.1-1.58,17.52-11,25.67-31.3,27.09,0,0-2.41.14-3.27.16a1.89,1.89,0,0,0-1.58,2l-.06,6.44c0,1.08.62,1.94,1.39,1.92l2.88-.12c26.32-1.55,40.22-13.65,42.28-36.82C471.25,21.06,471.44,18.51,471.47,17.5Z"/>
          <path class="cls-2" d="M426.83,15.77a2,2,0,0,0-2,2v4.88a2,2,0,0,0,2,2h15.64a2,2,0,0,0,1.95-2V17.73a2,2,0,0,0-1.95-2Z"/>
        </g>
        <path class="cls-2" d="M358.15,20.71c-6,5.34-12.34,8.52-20.44,11.27a59.3,59.3,0,0,1-15,2.76l-.24,0a1.47,1.47,0,0,0-1.35,1.38l-.1,5.66a1.15,1.15,0,0,0,1.3,1.17h.24a74.8,74.8,0,0,0,14.89-2.36,1,1,0,0,1,1.29,1V56.7A1.38,1.38,0,0,0,340.15,58h6.52a1.37,1.37,0,0,0,1.41-1.33V38.6a2.6,2.6,0,0,1,1.1-1.94,41.3,41.3,0,0,0,9.32-5.18l.15-.13a5,5,0,0,0,1.46-3.69V21.4C360.11,20.13,359.15,19.81,358.15,20.71Z"/>
        <path class="cls-2" d="M159.92,20.57c-.38-.65-1.6-1.08-3.72-1.08s-21.28,0-22.26,0c-1.73,0-2.2-1-2.52-2.53s-.76-4.22-1.15-5.86a1.69,1.69,0,0,0-1.88-1.5h-6.3a1.61,1.61,0,0,0-1.76,1.8c.23,1.42.48,3.9.8,5.58.42,2.19.23,2.62-1.48,2.62H114.4c-2,0-2.74.17-2.74,2.63s0,2.2,0,3.51c0,1.74.26,2.78,3,2.77,0,0,5.31-.06,6.45,0,2.54.19,2.32,1.55,2.82,4.33s4,21.74,4.28,23A2.35,2.35,0,0,0,130.75,58h4.33c1.55,0,3.43-.18,3.43-2.07,0-2.22-4.11-23.46-4.36-24.85s.37-2.61,1.84-2.62h12.07c1.69,0,2.36.41,2,1.9a16.5,16.5,0,0,1-2.07,5,46.57,46.57,0,0,1-4.11,5.17c-.7.86-.23,1.35,0,1.6,0,0,4.1,3.3,4.25,3.4,2.41,1.61,2.81,1,4,0,1.4-1.29,2.2-2.27,4.2-5.6a30.59,30.59,0,0,0,4-13.89C160.29,23.08,160.48,21.57,159.92,20.57Z"/>
        <path class="cls-2" d="M212,15.63H170.19c-1.39,0-1.79.57-1.79,2.12s0,4.33,0,5.32.67,2,2.63,2l31.34,0c2.88,0,3.1,1.22,2,4.16a19,19,0,0,1-5.32,7.06c-1.94,1.5-5.68,3.45-7.23,3.53-1.09.06-2.64-2.67-3.45-3.92-.58-.9-1.12-2.13-2.91-2.13s-7.23,0-8,0-2.14.16-.91,2.4c.9,1.64,11.13,19,11.79,20.19A2.78,2.78,0,0,0,190.86,58c1,0,6.93,0,8.23,0,1.67,0,2.13-1,.86-3.12-.72-1.18-2.14-3.2-2.9-4.57-.66-1.2-1-1.77.59-2.37,2.23-.83,9.29-4.53,12.38-8.18,3.8-4.51,5.38-10.25,5.42-16.12,0-3.58-.12-3.55-.12-4.68C215.32,17.19,214.6,15.63,212,15.63Z"/>
        <path class="cls-2" d="M265.13,33c-1,0-3.35-.06-4.26-.18A50,50,0,0,1,251,30.68a35.17,35.17,0,0,1-10.79-5.49c-1.72-1.43-3.56-2.81-3.56-4.12s0-7.18,0-8.56-.58-2.37-2.14-2.37l-6,0a2.14,2.14,0,0,0-2,2.38c0,1.39,0,41.13,0,42.68,0,2.65,1.24,2.65,2.79,2.65h5.09c1.46,0,2.32-.89,2.32-2.55,0-1.47,0-18.45,0-19.67s-.06-2.24,2.13-.83c1.1.7,3.64,2.07,5.24,3a74.55,74.55,0,0,0,10.81,4.14,57.66,57.66,0,0,0,9.39,1.33c1.46,0,2.4-.27,2.4-2s0-5.64,0-6.71S266.61,33,265.13,33Z"/>
      </g>
      <g>
        <path class="cls-2" d="M649.06,29.2A4.31,4.31,0,0,1,648,26.06c0-.82.43-.87,1.15-.87h1.54c.69,0,1.42-.31,1.49-1.65,0-.66,0-2.57,0-3.62,0-.76-.16-1.52-1.39-1.54-1.57,0-.55,0-1.57,0-1.41,0-1.25-1.63-1.25-2.28s0-2.65,0-3.79c0-1.37-.4-2.29-2.2-2.26-.85,0-2,0-2.57,0a1.94,1.94,0,0,0-2.06,2.24c0,.15,0,2.57,0,4s-.62,2.08-1.65,2.08-1.84,0-2.69,0c-1.55,0-2.27.67-2.27,1.67,0,.57,0,2.14,0,3.36s.66,1.9,1.69,1.9l3.31,0c1.22,0,1.57.05,1.53,1.45,0,1.13-1.26,4.11-2.17,5.8a56.07,56.07,0,0,1-3.37,5.11,6.17,6.17,0,0,0-.94,3.68c0,1.15,0,6.14,0,6.87s.27,1.53,1.13,1.5c.67,0,1.57-1.77,2-2.82s2.22-4.63,2.68-5.85c.23-.62.67-.47.62.43,0,.35,0,.77,0,1.22,0,.9,0,12.71,0,13.68s.66,1.68,2.83,1.82a7.79,7.79,0,0,0,1.4,0c1.47,0,2.87-.68,2.87-1.83,0-1,0-12.32,0-14.2,0-1,0-2.17,0-3s.22-1,.47-1,1.41,2.52,2,3.38a2.73,2.73,0,0,0,1.93,1.31c1,0,1-.78,1-1.83v-4a3.87,3.87,0,0,0-.7-2.61C652.38,34,650.16,30.6,649.06,29.2Z"/>
        <path class="cls-2" d="M681.86,46.14c-.1-.11-2.09-2.16-3.8-3.86A19.93,19.93,0,0,1,674.63,38c-.59-1.2-.16-1.71,2.4-1.68,1,0,4.09,0,5.11,0,1.45,0,1.66-.87,1.66-1.84s0-2.56,0-3.46-.72-1.59-2.18-1.63c-1,0-6.54,0-7.31,0a1.5,1.5,0,0,1-1.39-1.67c0-.58,0-.92,0-1.9s.09-1.64,1.72-1.63c1.11,0,5.54,0,6.66,0a1.94,1.94,0,0,0,2.12-2.08c0-1,0-1,0-2.08,0-1.87-1.17-2.29-2.12-2.29h-6.91A1.61,1.61,0,0,1,673,16c0-.82,0-3.7,0-4.41,0-1.26-.63-2.07-1.75-2.09-.55,0-2.59,0-3.41,0-1.41,0-2.27.2-2.27,2.21,0,1.1,0,2.93,0,4.31,0,1.75-.83,1.75-1.79,1.71s-1.65-.23-1.7-1.46c0-.49,0-2.92,0-4,0-1.46-1.94-1.55-2.7-1.55-1.08,0-2.52.21-2.52,2.09V16a3.6,3.6,0,0,1-1.47,2.69,3.46,3.46,0,0,0-1.19,2.82c0,1.07,0,2.94,0,4,0,1.77.69,1.79,1.55,1.79s2.16-1,3.06-1.9c.61-.57,1-1.17,2.08-1.17h3.33a1.15,1.15,0,0,1,1.3,1.21v2.08c0,1-.23,1.88-1.79,1.9-.52,0-4.72,0-6.43,0s-2.21.9-2.21,1.79,0,1.74,0,3.13.43,2,2.15,2.09c1.28,0,3.15,0,4.86-.06,2.44,0,2.44.45,1.74,1.83a45.21,45.21,0,0,1-3.69,4.29c-.78.88-4.24,4.22-5,4.85a4.07,4.07,0,0,0-1.4,2.89c0,1.14,0,2.49,0,4.28s-.07,2.89,1.38,2.94c1.14,0,3.81-3.48,4.85-4.86.81-1.07,3.66-4.38,4.49-5.66.49-.76,1-.4,1,.89s0,6,0,8.19c0,1.47,1,2.29,3.84,2.25,2.54,0,3.61-.9,3.61-2.18,0-1,0-7.39,0-8.37,0-.37-.11-1.15.4-1.23,0,0,.29-.13,1,1,.62.89,2.88,3.8,3.82,5.19,1.08,1.62,3.2,4.89,4.69,4.93,1.21,0,1.25-.81,1.26-2,0-.83.07-4.42.05-5.62C684.16,48.06,683.36,47.81,681.86,46.14Z"/>
        <path class="cls-2" d="M736.94,46.39c-4.4-3.46-5.47-4.91-7.84-8.87a36.37,36.37,0,0,1-3.94-10c-.55-2.64.08-2.8,3-2.76,1.19,0,9.69,0,10.81,0a1.92,1.92,0,0,0,2-1.84V19.43c0-1.39-.7-1.73-2.34-1.73H738c-1.21,0-1.72-.64-1.37-1.56s.41-1.25,1.08-3.29c.5-1.56-1.34-1.93-2.28-1.93s-2.44-.23-3.23,1.22a36.92,36.92,0,0,0-1.72,3.91c-.62,1.6-.94,1.65-1.87,1.65-.7,0-1.55,0-2.41,0-1.62,0-1.65-1-1.65-1.71s0-3-.08-4c-.19-1.62-1.77-1.87-3.66-1.86s-3.26.38-3.32,2.16c0,.82,0,2.08,0,3.72s-1.67,1.7-2.87,1.71-19.12,0-20.24,0a1.85,1.85,0,0,0-2.19,2c0,.89,0,1.9,0,3.13,0,1.89,1.52,1.89,2.89,1.89h21a1.74,1.74,0,0,1,1.81,1.38c.16.8.44,3.77.85,5.93a61.71,61.71,0,0,0,4,11.48,44.84,44.84,0,0,0,6,8.5,28.81,28.81,0,0,0,5.78,4.82,9.84,9.84,0,0,0,4,1.43c.69,0,1.75,0,1.75-1.58,0-2.12,0-5.82,0-7.2S739.57,48.45,736.94,46.39Z"/>
        <path class="cls-2" d="M717,45.15c-1.11.33-2.92.9-5.06,1.4s-2.65-.41-2.66-1.47,0-3.54,0-4.76.7-1.59,1.39-1.59h3.59a2,2,0,0,0,2.15-2.25c0-.66,0-1.14,0-2.85s-1.8-2-2.91-2l-17.15,0a1.93,1.93,0,0,0-2.14,1.65l0,3.76a1.8,1.8,0,0,0,1.94,1.65c1.2,0,4.13,0,5.25,0s1.62.07,1.62,1.54S703,44,703,45.9s-1.47,2.55-3,2.86c-1,.21-4.07,1-5.35,1.23a2.11,2.11,0,0,0-1.88,2.06v4.27c0,1.63,1.12,1.71,2.49,1.47s7.8-1.65,9.6-2.07,10.19-2.62,11.9-3.45,2-1.87,2-2.52.09-2.57.09-3.55S718.1,44.82,717,45.15Z"/>
        <path class="cls-2" d="M795.8,20.73c-1.63-.57-7.84-3-9.5-3.64-1.43-.57-6.44-3.12-7.9-4.43-2.68-2.42-3.77-3.17-5.76-3.25s-3.3.95-6.23,3.36-6.77,3.86-7.62,4.36-4.24,2.05-5.47,2.53S750,20.89,749,21.29s-1.35.74-1.35,2.38c0,.06,0,2.48,0,4.15,0,1.37.51,1.76,1.66,1.76a11,11,0,0,0,3.6-.9c.29-.11,5.19-2.44,4.88-2.44.68,0,0,2.27.89,3,.7.58,2.82.49,3.66.45,1.68-.08,18.9-.05,20.51-.05,1.28,0,3.13.2,3.42-.78.19-.63-.25-2.59.34-2.67s3.34,1.63,6,2.52a27.32,27.32,0,0,0,2.79.83c.59.14,1.89.09,1.89-1.66,0-1.22,0-4.29,0-4.86A2,2,0,0,0,795.8,20.73ZM779,22.79c-1.62.07-11.7-.05-13.15,0-1.77.08-2.66-1.16-.73-2.19,2.22-1.19,6.08-5,7.33-5,1.43,0,4.74,3.64,6.92,4.87C780.85,21.3,781.26,22.71,779,22.79Z"/>
        <path class="cls-2" d="M794,34H751.26c-1,0-2.19.25-2.19,2.13v2.32a2.15,2.15,0,0,0,2.21,2.14c1.45,0,8,.06,9.3,0s2.44.73,1.76,2.31a40.61,40.61,0,0,1-2.24,4.08c-.85,1.42-1.34,2.83-2.61,3.06s-4.71.46-6.13.66c-1.94.29-2.65.68-2.74,2.13,0,0,0,1.95,0,3.18,0,1.84,1,2.46,2.42,2.46s12.24-1.17,12.24-1.17,20.37-2.45,21.75-2.45,1.59,1.35,2.44,2.33a3.42,3.42,0,0,0,2.55,1c1.08.18,4.58.07,6.19.07,1.32,0,1-1.73.55-2.38-.83-1.29-7.38-11.15-7.86-11.69a4,4,0,0,0-3.11-1l-3.5,0c-1.37,0-1.89.7-.76,2.58.67,1.12,1.19,1.9-.35,2.14s-9.57,1.16-11.62,1.16-1.55-1.55-1-2.75c.45-.93,1.09-1.91,1.69-3.3s1-2.63,2.22-2.63l21.43,0c2.31,0,2.73-1.39,2.73-2.21V36C796.67,34.36,795.32,34,794,34Z"/>
        <path class="cls-2" d="M856,51.89A2,2,0,0,0,854,50h-5.37c-1.46,0-1.9-.42-1.91-1.4s0-14.28,0-15.91c0-1.32.62-2.68,1.57-2.68h5.55c1.38,0,1.81-1.54,1.82-3.92,0-1.29-.48-3.37-2-3.37h-4.89c-1.29,0-2-.2-2-2.16s-.1-7.2-.05-8.5-.52-2.37-4-2.36c-3.79,0-4.25.87-4.13,2.35.07.89,0,7.69,0,8.67a1.93,1.93,0,0,1-1.7,2h-5c-1.37,0-1.61,1.93-1.61,3.48,0,2.37.32,3.74,1.77,3.78.6,0,2.23,0,3.94,0a3,3,0,0,1,2.66,2.74c0,.91,0,15,0,15.93A1.42,1.42,0,0,1,837.1,50H831a1.8,1.8,0,0,0-1.7,1.84c0,1.07,0,2.77,0,4.08a2.11,2.11,0,0,0,2.27,1.94c1.11,0,20.91,0,22.46,0a1.84,1.84,0,0,0,2-2Z"/>
        <path class="cls-2" d="M807.66,18.31c-2.31,0-2.19,1.75-2.19,1.75v3.47a2,2,0,0,0,2.28,1.82c1.25,0,8.4,0,8.4,0h1c1.07,0,1,.93.72,1.44-1.11,2.14-2.25,5.79-11.67,13.71-1.52,1.27-1.08,2.56-1.19,3.6,0,.47,0,5.11,0,5.11a4,4,0,0,0,.16,1.48,1.48,1.48,0,0,0,1.68.36,4.44,4.44,0,0,0,1.28-.92,73.19,73.19,0,0,0,5.06-5.43c.16-.19.73-.39.73.43V56.58s.29,1.83,3.65,1.83,3.81-1.26,3.86-1.86,0-12.71,0-12.71,0,.26,0-.3c0-1.33.08-1.24,1.1-.81s3,2,3.85,2.23c1,.34,1.83-.82,2.72-2.81,1.29-2.89.67-3.8-1.7-5l-3.61-2-.45-.23a1.58,1.58,0,0,1-.71-2.53c1.28-2.11,2.65-4.76,2.65-4.76a26.77,26.77,0,0,0,1.43-2.88,7.07,7.07,0,0,0,.54-2c.35-2.74-.9-4.45-2.76-4.45h-2a1.15,1.15,0,0,1-1.25-1.25v-4.4c0-.86.34-2.44-2.54-2.44l-2.84,0c-1.83,0-2,1.57-2,2.4V17a1.43,1.43,0,0,1-1.39,1.27Z"/>
      </g>
    </g>
  </g>
</svg>
