<svg id="レイヤー_1" data-name="レイヤー 1" xmlns="http://www.w3.org/2000/svg" width="207" height="23" viewBox="0 0 621.9 68.13">
  <defs>
    <style>
      .cls-1 {
        fill: #fccf00;
      }

      .cls-2 {
        fill: #231815;
      }
    </style>
  </defs>
  <title>logo_ysd</title>
  <g>
    <g>
      <path class="cls-1" d="M102.75,34.06c0,18.83-23.06,34.06-51.37,34.06C22.89,68.12,0,52.89,0,34.06S22.89,0,51.38,0C79.69,0,102.75,15.24,102.75,34.06Z"/>
      <g>
        <g>
          <path class="cls-2" d="M51.38,0A70.07,70.07,0,0,0,21.45,6.38L22.19,8A68.6,68.6,0,0,1,51.38,1.77c15.88,0,30,4.92,39.17,12.38l1.1-1.32C82.16,5.08,67.66,0,51.38,0Z"/>
          <path class="cls-2" d="M98.06,23.22A22,22,0,0,1,101,34.06c0,17.86-22.27,32.3-49.61,32.3-27.52,0-49.61-14.44-49.61-32.3,0-6.62,2.84-12.59,8-17.73L8.62,15.07C3.24,20.55,0,27.14,0,34.06,0,52.9,22.88,68.13,51.38,68.13c28.31,0,51.38-15.23,51.38-34.07a23.58,23.58,0,0,0-3.18-11.7Z"/>
        </g>
        <g>
          <polygon class="cls-2" points="45.75 58.47 50.45 56.88 47.8 44.61 40.54 50.79 45.75 58.47"/>
          <path class="cls-2" d="M47.86,5.52,36,13.08H22.7L13,5.8A38.48,38.48,0,0,0,14.67,18c1.71,5.77,5.59,7.78,5.59,7.78h7.46l9.37-3.95L37,23.45a18.34,18.34,0,0,1-1.66,7,9.13,9.13,0,0,0,4.87-1.88c4-2.35,5.21-7.18,6.52-11.88A45,45,0,0,0,47.86,5.52ZM26.69,20.22a1.13,1.13,0,0,1-1.55.41,8.07,8.07,0,0,0-4.2-.8,1.13,1.13,0,0,1-1.31-.93,1.14,1.14,0,0,1,.94-1.31,10,10,0,0,1,5.71,1.08A1.14,1.14,0,0,1,26.69,20.22ZM39.28,18.9c-.1.62-.5,1-1.12.93a8.41,8.41,0,0,0-4.39.8,1.13,1.13,0,0,1-1.14-2,10.3,10.3,0,0,1,5.9-1.08A1.18,1.18,0,0,1,39.28,18.9Z"/>
          <path class="cls-2" d="M98.39,18.89l-1.57-3.42-23.51,8.9H45.14a11.78,11.78,0,0,1-4.42,5A14.36,14.36,0,0,1,37.43,31a8.64,8.64,0,0,1-2.62.44,15.57,15.57,0,0,1-1,1.48,11.89,11.89,0,0,1-9.84,5,10.49,10.49,0,0,1-6.52-2.37l-1.9.54,0,2,3.62.72-1.68.44.19,2.09,3.9,1.2V46l-3.41,3.9,1.29,1.53,1.4-.39-.69,1.26,1.18,1.6,8-4.08-3.74,5.53,4.87,3,18-15.67H58.75l-4,13.61L59,58.48l10-12,11.71,11,3.64-2.35L76.78,31.62ZM31.65,46.44v-8.5l3,4.17Z"/>
          <path class="cls-2" d="M28.13,26.87H19.9l-7.79-5.34C12.11,30,17.52,37,24,37a10.88,10.88,0,0,0,9.07-4.57,16.21,16.21,0,0,0,3-9ZM21.91,32a.64.64,0,0,1-1,.26,5.78,5.78,0,0,0-2.51-.57.84.84,0,1,1,0-1.68,6.18,6.18,0,0,1,3.21.83A.83.83,0,0,1,21.91,32Zm7.14-.34a5.65,5.65,0,0,0-2.51.58A.85.85,0,0,1,25.38,32a.84.84,0,0,1,.27-1.15,7.31,7.31,0,0,1,3.4-.84.84.84,0,0,1,0,1.68Z"/>
        </g>
      </g>
    </g>
    <g>
      <g>
        <g>
          <path class="cls-2" d="M166,21.35c-.39-.67-1.66-1.12-3.86-1.12s-22.1,0-23.11,0c-1.8,0-2.29-1-2.62-2.62s-.78-4.39-1.19-6.09a1.75,1.75,0,0,0-2-1.55h-6.53a1.68,1.68,0,0,0-1.84,1.86c.25,1.47.5,4.05.84,5.8.44,2.28.23,2.71-1.55,2.72h-5.43c-2.1,0-2.86.18-2.86,2.72s0,2.29,0,3.65c0,1.81.27,2.89,3.13,2.88,0,0,5.51-.07,6.7,0,2.64.2,2.41,1.61,2.93,4.49s4.14,22.57,4.43,23.9a2.46,2.46,0,0,0,2.61,2.21h4.5c1.6,0,3.56-.19,3.56-2.15,0-2.3-4.27-24.35-4.52-25.79s.38-2.71,1.91-2.72l12.52,0c1.76,0,2.45.43,2,2a16.94,16.94,0,0,1-2.15,5.17,47.59,47.59,0,0,1-4.27,5.37,1.1,1.1,0,0,0,0,1.66s4.26,3.43,4.41,3.53c2.51,1.66,2.92,1.07,4.16-.05,1.45-1.33,2.28-2.35,4.36-5.81A31.66,31.66,0,0,0,166.39,27C166.4,24,166.59,22.39,166,21.35Z"/>
          <path class="cls-2" d="M220.09,16.23H176.68c-1.44,0-1.86.59-1.86,2.2s0,4.51,0,5.52.7,2,2.73,2,31.26,0,32.53,0c3,0,3.22,1.25,2.08,4.31a19.82,19.82,0,0,1-5.51,7.33c-2,1.56-5.91,3.58-7.52,3.67-1.13,0-2.74-2.77-3.58-4.07-.6-.94-1.16-2.21-3-2.21l-8.27,0c-.76,0-2.21.17-.93,2.5.93,1.7,11.55,19.69,12.24,21a2.86,2.86,0,0,0,2.56,1.82c1,0,7.19,0,8.54,0,1.74,0,2.21-1.05.89-3.24-.74-1.22-2.22-3.31-3-4.75-.68-1.24-1.07-1.83.61-2.45,2.32-.86,9.65-4.7,12.85-8.5,3.95-4.68,5.59-10.63,5.63-16.73,0-3.71-.13-3.68-.13-4.86C223.52,17.85,222.78,16.23,220.09,16.23Z"/>
          <path class="cls-2" d="M275.24,34.23c-1,0-3.48,0-4.43-.18a51.62,51.62,0,0,1-10.28-2.2,36.5,36.5,0,0,1-11.2-5.7c-1.79-1.48-3.69-2.92-3.69-4.27s0-7.46,0-8.89-.61-2.46-2.22-2.46h-6.27A2.23,2.23,0,0,0,235.06,13c0,1.44,0,42.7,0,44.31,0,2.75,1.29,2.75,2.9,2.75h5.28c1.52,0,2.41-.93,2.41-2.65,0-1.53,0-19.15,0-20.43s-.06-2.32,2.22-.86c1.14.73,3.77,2.16,5.43,3.07a76.26,76.26,0,0,0,11.23,4.3,60.23,60.23,0,0,0,9.74,1.38c1.52,0,2.5-.28,2.5-2.06s0-5.87,0-7S276.78,34.24,275.24,34.23Z"/>
        </g>
        <path d="M389.37,47.88,381,43.4l-.51-.3a1.3,1.3,0,0,1,0-1.8c5.3-6.1,8.89-13,8.89-17.76h0V18.21a2,2,0,0,0-2-2h-42a2,2,0,0,0-2,2v5.38a2,2,0,0,0,2,2h30.08c1,.14,2.12.66,1.46,2.23s-2.63,6-9.92,11.7c-8.81,6.92-20.8,9.15-21.31,9.23l-.71.19c-1.41.22-2,1-2,2.1v6.88A2,2,0,0,0,345.09,60h0c1.32-.28,14.1-3.11,24.26-9.25a2.28,2.28,0,0,1,2.31-.35l17.71,9.5a1.11,1.11,0,0,0,1.77-1.06v-8A3.7,3.7,0,0,0,389.37,47.88Z"/>
        <g>
          <path d="M405.42,13.38h41.44A1.63,1.63,0,0,1,448.48,15v5.42a1.63,1.63,0,0,1-1.63,1.63H405.42a1.63,1.63,0,0,1-1.63-1.63V15A1.62,1.62,0,0,1,405.42,13.38Z"/>
          <path d="M450.05,27.06H402.22a1.63,1.63,0,0,0-1.62,1.62v5.84a1.63,1.63,0,0,0,1.62,1.62h20.83c.89,0,1.29.59,1.14,1.55a9.46,9.46,0,0,1-1.41,4,13.91,13.91,0,0,1-3.87,4,23.29,23.29,0,0,1-10.74,4.15c-.8.11-1.55.17-2.27.2h-.36A1.6,1.6,0,0,0,404,51.67v6.9a1.58,1.58,0,0,0,1.52,1.63l.53,0a33.29,33.29,0,0,0,18.1-6.07,24.23,24.23,0,0,0,10.25-16.37v0a2.31,2.31,0,0,1,2.08-1.56h13.55a1.63,1.63,0,0,0,1.63-1.62V28.68A1.63,1.63,0,0,0,450.05,27.06Z"/>
        </g>
        <g>
          <path d="M286.89,14.8a1.63,1.63,0,0,0-1.61,1.63V21a1.63,1.63,0,0,0,1.61,1.63H304A1.64,1.64,0,0,0,305.6,21V16.43A1.64,1.64,0,0,0,304,14.8Z"/>
          <path d="M286.89,28a1.63,1.63,0,0,0-1.61,1.61v4.6a1.62,1.62,0,0,0,1.61,1.6H304a1.62,1.62,0,0,0,1.63-1.6v-4.6A1.63,1.63,0,0,0,304,28Z"/>
          <path d="M333.87,17.93a1.89,1.89,0,0,0-2-1.9h-6.73a2,2,0,0,0-2.07,1.67c0,.88-.2,3.21-.2,3.21-1.65,18.23-11.45,26.69-32.54,28.17,0,0-2.52.14-3.42.17a2,2,0,0,0-1.63,2.1L285.25,58c0,1.13.64,2,1.42,2l3-.13c27.37-1.62,41.81-14.18,44-38.29C333.64,21.62,333.84,19,333.87,17.93Z"/>
        </g>
        <path d="M505.58,57.52,495.73,36a3.48,3.48,0,0,0-2.92-1.86h-7.7A1.23,1.23,0,0,0,483.89,36l3.45,7.6A2.08,2.08,0,0,1,486,45.94l-.18.06-.32.08.31-.08a70.69,70.69,0,0,1-17.56,3.74l.24,0c-1,.07-1.44-1.06-1-2.11l13-30.88a1.27,1.27,0,0,0-1.26-1.9h-6.42a3.37,3.37,0,0,0-2.87,1.9L453.87,55.06a4.34,4.34,0,0,0-.09,3.22,3,3,0,0,0,2.74,1.18h.12c8.55,0,20.12-.48,33.4-5.11l-.05,0a2.19,2.19,0,0,1,2.74,1.19h0l.91,2a3.49,3.49,0,0,0,2.92,1.89h7.81A1.23,1.23,0,0,0,505.58,57.52Z"/>
      </g>
      <g>
        <path d="M621.57,20.14a1.11,1.11,0,0,0-.84-1.92l-3.86,0a2.26,2.26,0,0,0-2,.77l-3.16,3a1.53,1.53,0,0,1-2,0,5.56,5.56,0,0,1-1.2-1,1.25,1.25,0,0,1,.14-1.79l5.56-5.65c.6-.62.34-1.67-.86-1.67H609a3.34,3.34,0,0,0-2.39,1.13l-2.26,2.19a1.32,1.32,0,0,1-2-.21,23,23,0,0,1-2.13-2.56A3.07,3.07,0,0,0,597.88,11H573.33a1.57,1.57,0,0,0-1.57,1.57v2.86A1.57,1.57,0,0,0,573.33,17h14.49c.86,0,1.06.49.44,1.08l-2.76,2.48c-.65.57-1,.62-1.55.19a15.84,15.84,0,0,1-1.27-1.09,4.15,4.15,0,0,0-2.75-.85h-6.65c-.86,0-1,.43-.32,1l5.33,4.13a.9.9,0,0,1-.16,1.65l-4.89,2a2.35,2.35,0,0,0-1.48,2.08v4.41a1.11,1.11,0,0,0,1.5,1.13l5.71-2.6a1,1,0,0,1,1.44,1v.77A1.58,1.58,0,0,0,582,35.88h2.19a1.57,1.57,0,0,1,1.57,1.56v1.5a1.58,1.58,0,0,1-1.57,1.57h-9.46a1.57,1.57,0,0,0-1.57,1.57v3.43a1.57,1.57,0,0,0,1.57,1.57h8.23c.87,0,1.23.41.82,1.07a4.54,4.54,0,0,1-.6.67c-3.53,3.49-9,4-9,4a2,2,0,0,0-1.54,1.87v3.78c0,.86.55,1.34,1.54,1.26a23.59,23.59,0,0,0,6.74-1.5,23.86,23.86,0,0,0,7.23-4.61,17.65,17.65,0,0,0,3.22-5.07,2.5,2.5,0,0,1,2.15-1.45h5c.86,0,1.57.16,1.57,1a13.9,13.9,0,0,0,.36,3.16c1.06,4.85,5.88,7.82,9,8.18a40.44,40.44,0,0,0,5.31.38h3.76A1.57,1.57,0,0,0,620,58.2v-4a1.57,1.57,0,0,0-1.57-1.57h-3.76c-.86,0-3.74,0-4.51-.39-1.49-.74-2.95-1.53-2.95-3.51v-.67c0-.59.7-1,1.56-1h9.28a1.58,1.58,0,0,0,1.57-1.57V42.08a1.58,1.58,0,0,0-1.57-1.57h-9.28a1.57,1.57,0,0,1-1.56-1.57v-1.5a1.56,1.56,0,0,1,1.56-1.56h2a1.57,1.57,0,0,0,1.57-1.57V33.07c0-.86.54-1.38,1.42-.89a58.13,58.13,0,0,0,6.2,3c1,.37,1.74-.17,1.74-1V29.55a2.65,2.65,0,0,0-1.51-2.22l-2.43-1.21a1,1,0,0,1,0-1.78Zm-14.29,8.41c.5.36.38.76-.49.76H586.73c-.86,0-1-.45-.35-1l9-7.84a1.4,1.4,0,0,1,2.06,0Zm-7.21,10.39a1.58,1.58,0,0,1-1.57,1.57h-4.28a1.58,1.58,0,0,1-1.57-1.57v-1.5a1.57,1.57,0,0,1,1.57-1.56h4.28a1.57,1.57,0,0,1,1.57,1.56Z"/>
        <g>
          <path d="M548.94,40.76a1.58,1.58,0,0,1-1.57-1.57V37.77c0-.86.39-1.57,1.25-1.57H550a1.51,1.51,0,0,0,1.51-1.57l-.08-2.93a1.65,1.65,0,0,0-1.63-1.57h-22c-.86,0-1.59,1-1.62,1.88l-.09,2.62a1.51,1.51,0,0,0,1.51,1.57h.78a1.58,1.58,0,0,1,1.57,1.57v1.42a1.58,1.58,0,0,1-1.57,1.57h-1.45a1.72,1.72,0,0,0-1.68,1.57l-.08,2.93a1.45,1.45,0,0,0,1.46,1.57h1.74c.86,0,1,.46,1,1.27,0,1.43-.06,3.1-3.18,5.07a2.11,2.11,0,0,0-1.24,1.77v3.6a1.25,1.25,0,0,0,1.56,1.31,14.19,14.19,0,0,0,4-1.54,12.58,12.58,0,0,0,5-6.27,17.58,17.58,0,0,0,.69-3.64,1.73,1.73,0,0,1,1.73-1.57h1.33a1.57,1.57,0,0,1,1.57,1.57v9.43a1.57,1.57,0,0,0,1.57,1.57h3.5a1.57,1.57,0,0,0,1.56-1.57V48.4a1.58,1.58,0,0,1,1.57-1.57h2a1.39,1.39,0,0,0,1.46-1.5l-.1-3a1.72,1.72,0,0,0-1.68-1.57Zm-8.2-1.57a1.57,1.57,0,0,1-1.57,1.57h-1.33a1.58,1.58,0,0,1-1.57-1.57V37.77a1.58,1.58,0,0,1,1.57-1.57h1.33a1.57,1.57,0,0,1,1.57,1.57Z"/>
          <path d="M543.75,15.14a2.73,2.73,0,0,1-2.45-2l-.62-1.67a2.85,2.85,0,0,0-2.61-2H533.8a1.52,1.52,0,0,0-1.54,2l.6,1.76c.3,1.1-.53,1.86-1.68,1.86H515.47a2.07,2.07,0,0,0-2.07,2.07V57.69a2.07,2.07,0,0,0,2.07,2.07h4.07a2.07,2.07,0,0,0,2.07-2.07V24.94a2.07,2.07,0,0,1,2.07-2.07h9.7A2.78,2.78,0,0,1,536,24.74a2.76,2.76,0,0,0,2.57,1.88h4.28a1.47,1.47,0,0,0,1.57-1.88A1.47,1.47,0,0,1,546,22.87h7.42a2.08,2.08,0,0,1,2.08,2.07V57.67a2.07,2.07,0,0,0,2.07,2.07h4.06a2.08,2.08,0,0,0,2.08-2.07V17.21a2.08,2.08,0,0,0-2.08-2.07Z"/>
        </g>
      </g>
    </g>
  </g>
</svg>
