<svg id="レイヤー_1" data-name="レイヤー 1" xmlns="http://www.w3.org/2000/svg" width="60" height="59.68" viewBox="0 0 60 59.68">
    <defs>
        <style>
            .cls-1 {
            fill: #656565;
            }
        </style>
    </defs>
    <title>icon_pencil</title>
    <path class="cls-1"
          d="M61.21,8.76A12.9,12.9,0,0,0,43,8.75l-28.51,28a2.25,2.25,0,0,0-.52.81L5.13,61.7A2.23,2.23,0,0,0,5.6,64a2.27,2.27,0,0,0,1.6.68,2,2,0,0,0,.64-.1l21.86-6.7a2.37,2.37,0,0,0,.91-.55L61.21,27a12.89,12.89,0,0,0,0-18.26ZM27.18,54,19,56.54a9.23,9.23,0,0,0-2.23-3.66,11.74,11.74,0,0,0-3-2.11l3.73-10.29h5.05v4.38a2.19,2.19,0,0,0,2.2,2.2h3.89Zm22-21.2L32.75,48.94l.77-3.61a2.19,2.19,0,0,0-2.15-2.65H27v-4.4a2.2,2.2,0,0,0-2.2-2.2H21.31L37.12,20.73l0,0A8.52,8.52,0,0,1,49.2,32.82Zm8.9-8.9-2.05,2A12.87,12.87,0,0,0,44,13.91l2.06-2h0A8.52,8.52,0,1,1,58.1,23.92Zm-14.43-.73"
          transform="translate(-5 -4.97)"/>
</svg>
