<svg id="レイヤー_1" data-name="レイヤー 1" xmlns="http://www.w3.org/2000/svg" width="645.53" height="61.88" viewBox="0 0 645.53 61.88">
    <defs>
        <style>
            .cls-1 {
            fill: #fccf00;
            }

            .cls-2 {
            fill: #231815;
            }
        </style>
    </defs>
    <title>logo_yhd</title>
    <g>
        <g>
            <path class="cls-1" d="M93.32,30.94c0,17.09-20.9,30.94-46.66,30.94S0,48,0,30.94,20.88,0,46.66,0,93.32,13.85,93.32,30.94Z"/>
            <g>
                <g>
                    <path class="cls-2" d="M46.66,0A63.89,63.89,0,0,0,19.6,5.73l.66,1.42a62.53,62.53,0,0,1,26.4-5.56C61.09,1.59,73.94,6,82.19,12.88l1-1.19C74.64,4.56,61.45,0,46.66,0Z"/>
                    <path class="cls-2"
                          d="M89.11,21a20.6,20.6,0,0,1,2.63,9.91c0,16.22-20.19,29.35-45.08,29.35S1.58,47.16,1.58,30.94C1.58,25,4.3,19.45,9,14.83L7.9,13.71C2.91,18.64,0,24.56,0,30.94,0,48,20.88,61.88,46.66,61.88S93.33,48,93.33,30.94a21.85,21.85,0,0,0-2.87-10.69Z"/>
                </g>
                <g>
                    <polygon class="cls-2" points="41.6 53.04 45.81 51.61 43.44 40.42 36.92 46.14 41.6 53.04"/>
                    <path class="cls-2"
                          d="M43.5,5l-10.84,7H20.72L11.86,5.21a35.06,35.06,0,0,0,1.48,11.14c1.54,5.19,5,7,5,7h6.87l8.43-3.58-.08,1.46a17.39,17.39,0,0,1-1.5,6.46A8.86,8.86,0,0,0,36.62,26c3.59-2.28,4.68-6.64,5.86-10.85A41.4,41.4,0,0,0,43.5,5ZM24.31,18.34a1.05,1.05,0,0,1-1.4.37A7.4,7.4,0,0,0,19,18a1,1,0,0,1-.33-2,9.28,9.28,0,0,1,5.3,1A1,1,0,0,1,24.31,18.34Zm11.47-1.19a1,1,0,0,1-1.16.84,7.44,7.44,0,0,0-3.95.72,1,1,0,0,1-1.39-.37,1,1,0,0,1,.38-1.4A9.21,9.21,0,0,1,35,16,1,1,0,0,1,35.78,17.15Z"/>
                    <path class="cls-2"
                          d="M89.4,17.14,88,14.06l-21.47,8H41.05a11.22,11.22,0,0,1-4,4.67A12.71,12.71,0,0,1,34,28.23a7.6,7.6,0,0,1-2.36.4c-.26.44-.55.89-.86,1.32a10.63,10.63,0,0,1-8.84,4.46,10,10,0,0,1-6-2.11l-1.7.49,0,1.78,3.24.64-1.51.4.17,1.89,3.68,1.07v3.3l-3.24,3.49,1.16,1.38L19,46.39l-.62,1.14L19.56,49l7.15-3.67-3.35,5L27.73,53,44.06,38.73h9.39L49.72,51.14l3.91,1.91,8.94-10.81,10.7,9.91L76.53,50,69.82,28.74ZM28.77,42.23V34.42l2.65,3.77Z"/>
                    <path class="cls-2"
                          d="M25.59,24.31H18l-7-4.8c0,7.76,4.87,14.05,10.87,14.05a9.76,9.76,0,0,0,8.15-4.12,15.1,15.1,0,0,0,2.67-8.25ZM20,29.11a.75.75,0,0,1-1,.24,5.15,5.15,0,0,0-2.27-.52.73.73,0,0,1-.75-.74.75.75,0,0,1,.75-.76,6.56,6.56,0,0,1,3.07.76A.73.73,0,0,1,20,29.11Zm6.41-.3a5.07,5.07,0,0,0-2.25.52.76.76,0,0,1-1-.24.75.75,0,0,1,.24-1,6.61,6.61,0,0,1,3.05-.75.76.76,0,0,1,.76.76A.75.75,0,0,1,26.42,28.81Z"/>
                </g>
            </g>
        </g>
        <g>
            <g>
                <rect class="cls-2" x="310.35" y="30.79" width="27.4" height="8.37" rx="1.82"/>
                <g>
                    <path class="cls-2" d="M353.35,12.08a2,2,0,0,0-2,2v9.67c0,5.58-.77,11.68-6.31,18.38a6.19,6.19,0,0,0-1.25,3.45v8.07a1.17,1.17,0,0,0,.52,1.14,1.09,1.09,0,0,0,1.16-.33c9.23-6.85,14.5-18.27,14.5-31.37v-9a2,2,0,0,0-2-2Z"/>
                    <path class="cls-2"
                          d="M391.1,33.34c0-1-.51-1.19-1.15-.41h0a40.28,40.28,0,0,1-9,8.56,26.41,26.41,0,0,1-5.45,2.83V13.93a1.84,1.84,0,0,0-1.83-1.84h-5.5a1.85,1.85,0,0,0-1.84,1.84V53a1.71,1.71,0,0,0,1.53,1.83h.41c.12,0,1.76-.08,3.2-.3h0a29.22,29.22,0,0,0,13.12-5.31,28.39,28.39,0,0,0,5.28-4.52l.18-.23a5.59,5.59,0,0,0,1.1-3.12Z"/>
                </g>
            </g>
            <g>
                <path class="cls-2"
                      d="M150.78,19.39c-.36-.61-1.51-1-3.5-1s-20.07,0-21,0c-1.63,0-2.07-.94-2.37-2.4s-.71-4-1.08-5.53A1.61,1.61,0,0,0,121,9.05H115.1a1.52,1.52,0,0,0-1.65,1.7c.22,1.34.45,3.67.76,5.26.39,2.08.21,2.48-1.4,2.48s-4.25,0-4.94,0c-1.91,0-2.6.16-2.6,2.47s0,2.09,0,3.31c0,1.65.24,2.63,2.86,2.62,0,0,5-.05,6.07,0,2.4.18,2.19,1.47,2.66,4.08s3.76,20.5,4,21.7a2.23,2.23,0,0,0,2.37,2h4.1c1.46,0,3.22-.17,3.22-1.94,0-2.11-3.88-22.13-4.11-23.44s.35-2.46,1.75-2.46l11.36,0c1.6,0,2.23.39,1.86,1.79a15.53,15.53,0,0,1-2,4.7,44,44,0,0,1-3.86,4.88,1,1,0,0,0,0,1.49s3.86,3.12,4,3.22c2.28,1.5,2.66,1,3.78-.05,1.32-1.21,2.07-2.14,4-5.27a28.87,28.87,0,0,0,3.77-13.11C151.13,21.77,151.3,20.33,150.78,19.39Z"/>
                <path class="cls-2"
                      d="M199.89,14.74H160.46c-1.31,0-1.68.54-1.68,2s0,4.08,0,5,.62,1.85,2.47,1.85l29.55,0c2.72,0,2.92,1.13,1.9,3.92a18.14,18.14,0,0,1-5,6.64c-1.84,1.42-5.36,3.26-6.82,3.34-1,.06-2.48-2.52-3.25-3.71-.55-.83-1.06-2-2.76-2s-6.8,0-7.5,0-2,.16-.85,2.26c.85,1.55,10.5,17.89,11.12,19A2.61,2.61,0,0,0,180,54.71c.93,0,6.54,0,7.77,0,1.56,0,2-1,.81-2.93-.68-1.12-2-3-2.74-4.31-.63-1.13-1-1.67.56-2.24,2.11-.78,8.76-4.26,11.68-7.71a23.41,23.41,0,0,0,5.1-15.19c0-3.39-.11-3.37-.11-4.42C203,16.21,202.34,14.74,199.89,14.74Z"/>
                <path class="cls-2"
                      d="M250,31.1c-.95,0-3.16-.05-4-.16a47.29,47.29,0,0,1-9.33-2,32.57,32.57,0,0,1-10.18-5.18c-1.63-1.33-3.35-2.65-3.35-3.88s0-6.76,0-8.07-.55-2.24-2-2.24h-5.7a2,2,0,0,0-1.88,2.26c0,1.31,0,38.78,0,40.25,0,2.49,1.17,2.49,2.64,2.49h4.8c1.38,0,2.19-.85,2.19-2.4,0-1.39,0-17.4,0-18.55s0-2.11,2-.78c1,.66,3.42,1.95,4.94,2.78a70.09,70.09,0,0,0,10.19,3.89,55.31,55.31,0,0,0,8.85,1.27c1.38,0,2.27-.26,2.27-1.88s0-5.31,0-6.32S251.38,31.11,250,31.1Z"/>
            </g>
            <path class="cls-2"
                  d="M643.93,43.68l-7.55-4-.46-.27a1.16,1.16,0,0,1,0-1.62c4.79-5.57,8-11.84,8-16.13h0V16.78A1.85,1.85,0,0,0,642.11,15H604.05a1.85,1.85,0,0,0-1.85,1.82v4.89a1.85,1.85,0,0,0,1.85,1.82h27.3c.86.12,1.95.58,1.35,2s-2.41,5.39-9,10.56c-8,6.32-18.89,8.32-19.35,8.39l-.66.17c-1.29.19-1.87.89-1.87,1.9v6.29a1.81,1.81,0,0,0,2,1.89h0c1.2-.26,12.8-2.8,22-8.41a2.07,2.07,0,0,1,2.1-.32l16,8.64a1,1,0,0,0,1.6-1V46.35A3.34,3.34,0,0,0,643.93,43.68Z"/>
            <g>
                <g>
                    <path class="cls-2"
                          d="M539.82,16.52A1.7,1.7,0,0,0,538,14.81h-6.09a1.8,1.8,0,0,0-1.9,1.5c0,.82-.17,2.92-.17,2.92-1.49,16.54-10.37,24.21-29.49,25.55,0,0-2.27.13-3.08.15a1.77,1.77,0,0,0-1.49,1.89l-.05,6.08c0,1,.58,1.82,1.3,1.8l2.72-.11c24.8-1.47,37.89-12.86,39.84-34.72C539.62,19.87,539.79,17.47,539.82,16.52Z"/>
                    <path class="cls-2" d="M497.76,14.89a1.85,1.85,0,0,0-1.84,1.84v4.6a1.85,1.85,0,0,0,1.84,1.87H512.5a1.85,1.85,0,0,0,1.84-1.87v-4.6a1.85,1.85,0,0,0-1.84-1.84Z"/>
                </g>
                <path class="cls-2"
                      d="M485.7,19.54c-5.63,5.06-11.63,8.05-19.28,10.64a56,56,0,0,1-14.14,2.6l-.23,0a1.39,1.39,0,0,0-1.27,1.3l-.09,5.33a1.09,1.09,0,0,0,1.22,1.11h.23a70.21,70.21,0,0,0,14-2.23,1,1,0,0,1,1.22,1V53.47a1.3,1.3,0,0,0,1.33,1.26h6.16a1.3,1.3,0,0,0,1.33-1.26v-17a2.45,2.45,0,0,1,1-1.83A38.88,38.88,0,0,0,486,29.71l.15-.12a4.67,4.67,0,0,0,1.37-3.47V20.19C487.54,19,486.64,18.7,485.7,19.54Z"/>
            </g>
            <g>
                <path class="cls-2"
                      d="M287.69,17.94a1.86,1.86,0,0,1-1.85-1.83V10.68A1.83,1.83,0,0,0,284,8.85H278a1.84,1.84,0,0,0-1.85,1.83v5.43a1.84,1.84,0,0,1-1.82,1.83H260.21a1.84,1.84,0,0,0-1.83,1.87v4.46a1.87,1.87,0,0,0,1.83,1.87h14.07A1.83,1.83,0,0,1,276.1,28v24.9A1.83,1.83,0,0,0,278,54.69H284a1.83,1.83,0,0,0,1.82-1.82V28a1.85,1.85,0,0,1,1.85-1.83H302a1.87,1.87,0,0,0,1.84-1.87V19.81A1.84,1.84,0,0,0,302,17.94Z"/>
                <path class="cls-2" d="M259.73,52.86a1.85,1.85,0,0,0,1.85,1.83h5.09a1.85,1.85,0,0,0,1.85-1.83V34.93a1.84,1.84,0,0,0-1.85-1.82h-5.09a1.84,1.84,0,0,0-1.85,1.82Z"/>
                <path class="cls-2" d="M293.74,52.87a1.83,1.83,0,0,0,1.82,1.82h5.11a1.85,1.85,0,0,0,1.85-1.82V34.94a1.85,1.85,0,0,0-1.85-1.82h-5.11a1.83,1.83,0,0,0-1.82,1.82Z"/>
            </g>
            <g>
                <path d="M598.34,9.44h-2c-.87,0-1.84,1-2.16,2.16l-1.42,4.53c-.32,1.19.13,2.16,1,2.16h2c.87,0,1.84-1,2.16-2.16l1.42-4.53C599.67,10.41,599.22,9.44,598.34,9.44Z"/>
                <path d="M590.73,9.44h-2c-.87,0-1.85,1-2.17,2.16l-.73,2.33a1.48,1.48,0,0,1-1.4,1h-17c-.5,0-.17-.72-.06-1l.39-1.16c.2-.81-.36-1-1-1h-7.35a1.85,1.85,0,0,0-1.58.9l-.12.25c-2.07,4.61-4.88,8.21-10,9.59l-.35.09a1.61,1.61,0,0,0-1.11,1.67v5.87c0,1,.75,2,1.78,1.81l.32-.09a28,28,0,0,0,13.41-8.12l.08-.08a1.8,1.8,0,0,1,1.3-.54h14.27c2.4,0,1.85,1.66,1.82,1.82l0,.08A26.59,26.59,0,0,1,572,36.89c-4,3.81-10.88,7.87-21.37,8.26h0A1.82,1.82,0,0,0,549,47v5.94a1.83,1.83,0,0,0,1.78,1.82h0c10.87-.34,20.56-3.77,28-10.89,6.57-6.32,10.68-15,10.77-22.65V17.62a3.49,3.49,0,0,0,.85-1.49l1.42-4.53C592.06,10.41,591.6,9.44,590.73,9.44Z"/>
            </g>
            <g>
                <path d="M442.79,24.53H399.4A1.48,1.48,0,0,0,397.93,26v5.31a1.47,1.47,0,0,0,1.47,1.47h19c.8,0,1.17.54,1,1.42a8.6,8.6,0,0,1-1.28,3.62,12.63,12.63,0,0,1-3.53,3.62,21,21,0,0,1-9.76,3.77c-.72.1-1.41.16-2.06.19h-.33a1.46,1.46,0,0,0-1.38,1.5v6.28a1.43,1.43,0,0,0,1.38,1.47h.49a30.17,30.17,0,0,0,16.45-5.52,22,22,0,0,0,9.32-14.88v0a2,2,0,0,1,1.78-1.42h12.33a1.47,1.47,0,0,0,1.47-1.47V26A1.48,1.48,0,0,0,442.79,24.53Z"/>
                <path d="M453.47,9.44h-2c-.87,0-1.84,1-2.16,2.16l-1.42,4.53c-.32,1.19.13,2.16,1,2.16h2c.87,0,1.85-1,2.17-2.16l1.42-4.53C454.8,10.41,454.34,9.44,453.47,9.44Z"/>
                <path d="M445.86,9.44h-2c-.83,0-1.76.9-2.11,2a1.3,1.3,0,0,1-1.23.68H402.31a1.48,1.48,0,0,0-1.48,1.48v4.93A1.49,1.49,0,0,0,402.31,20h37.57a1.24,1.24,0,0,0,1.33-.9c.17-.69.62-.83,1.22-.85h.85c.87,0,1.84-1,2.16-2.16l1.42-4.53C447.18,10.41,446.73,9.44,445.86,9.44Z"/>
            </g>
        </g>
    </g>
</svg>
