<svg xmlns="http://www.w3.org/2000/svg" xmlns:xlink="http://www.w3.org/1999/xlink" viewBox="0 0 65.77 62.12">
  <g class="cls-2" style="fill:#ed1c23;">
    <path d="M37.53,53.38V0H33.22C22.15,2,11.11,3.85,0,5.77V56.26c10.93,1.93,22,3.86,33,5.86h4.5V53.38ZM21.25,42.3a85.16,85.16,0,0,1-3.62-9.06c-1,2.93-2.38,5.69-3.51,8.56-1.58,0-3.16-.09-4.74-.15C11.23,38,13,34.36,14.93,30.76,13.31,27,11.52,23.4,9.85,19.71l4.78-.27c1.07,2.82,2.25,5.61,3.14,8.5,1-3.07,2.37-6,3.59-8.92q2.45-.17,4.91-.3-2.88,5.92-5.81,11.87c2,4,4,8,6,12.09-1.74-.14-3.47-.25-5.21-.38"
      transform="translate(0 0)"/>
    <path d="M39.35,6.92v3.83H47V16.4H39.35v3.1H47v5.65H39.35v3.1H47v5.64H39.35V37H47v5.6H39.35v3.28H47v5.47H39.35v3.83H65.77V6.92ZM59.94,51.38H48.82V45.91H59.94Zm0-8.75H48.82V37H59.94Zm0-8.75H48.82V28.24H59.94Zm0-8.75H48.82V19.49H59.94Zm0-8.75H48.82V10.75H59.94Z"
      transform="translate(0 0)"/>
  </g>
</svg>